<?xml version="1.0" encoding="UTF-8" standalone="no"?>
<svg
   xmlns:dc="http://purl.org/dc/elements/1.1/"
   xmlns:cc="http://creativecommons.org/ns#"
   xmlns:rdf="http://www.w3.org/1999/02/22-rdf-syntax-ns#"
   xmlns:svg="http://www.w3.org/2000/svg"
   xmlns="http://www.w3.org/2000/svg"
   xmlns:sodipodi="http://sodipodi.sourceforge.net/DTD/sodipodi-0.dtd"
   xmlns:inkscape="http://www.inkscape.org/namespaces/inkscape"
   height="32px"
   style="enable-background:new 0 0 32 32;"
   version="1.1"
   viewBox="0 0 32 32"
   width="32px"
   x="0px"
   xml:space="preserve"
   y="0px"
   id="svg2985"
   inkscape:version="0.48.4 r9939"
   sodipodi:docname="cog.svg"><metadata
     id="metadata2995"><rdf:RDF><cc:Work
         rdf:about=""><dc:format>image/svg+xml</dc:format><dc:type
           rdf:resource="http://purl.org/dc/dcmitype/StillImage" /><dc:title /></cc:Work></rdf:RDF></metadata><defs
     id="defs2993" /><sodipodi:namedview
     pagecolor="#ffffff"
     bordercolor="#666666"
     borderopacity="1"
     objecttolerance="10"
     gridtolerance="10"
     guidetolerance="10"
     inkscape:pageopacity="0"
     inkscape:pageshadow="2"
     inkscape:window-width="1374"
     inkscape:window-height="886"
     id="namedview2991"
     showgrid="true"
     inkscape:zoom="21.125"
     inkscape:cx="16"
     inkscape:cy="16"
     inkscape:window-x="179"
     inkscape:window-y="138"
     inkscape:window-maximized="0"
     inkscape:current-layer="cog"><inkscape:grid
       type="xygrid"
       id="grid3150" /></sodipodi:namedview><g
     id="Layer_1" /><g
     id="cog"
     inkscape:label="Cog"><path
       d="M32,17.969v-4l-4.781-1.992c-0.133-0.375-0.273-0.738-0.445-1.094l1.93-4.805L25.875,3.25   l-4.762,1.961c-0.363-0.176-0.734-0.324-1.117-0.461L17.969,0h-4l-1.977,4.734c-0.398,0.141-0.781,0.289-1.16,0.469l-4.754-1.91   L3.25,6.121l1.938,4.711C5,11.219,4.848,11.613,4.703,12.02L0,14.031v4l4.707,1.961c0.145,0.406,0.301,0.801,0.488,1.188   l-1.902,4.742l2.828,2.828l4.723-1.945c0.379,0.18,0.766,0.324,1.164,0.461L14.031,32h4l1.98-4.758   c0.379-0.141,0.754-0.289,1.113-0.461l4.797,1.922l2.828-2.828l-1.969-4.773c0.168-0.359,0.305-0.723,0.438-1.094L32,17.969z    M15.969,22c-3.312,0-6-2.688-6-6s2.688-6,6-6s6,2.688,6,6S19.281,22,15.969,22z"
       style="fill:#333333;fill-opacity:1"
       id="path2989" /></g></svg>