<?xml version="1.0" encoding="UTF-8" standalone="no"?>
<svg
   width="96"
   height="96"
   viewBox="0 0 96 96"
   version="1.1"
   id="svg14"
   sodipodi:docname="done-all.svg"
   inkscape:version="1.1.2 (0a00cf5339, 2022-02-04)"
   xmlns:inkscape="http://www.inkscape.org/namespaces/inkscape"
   xmlns:sodipodi="http://sodipodi.sourceforge.net/DTD/sodipodi-0.dtd"
   xmlns="http://www.w3.org/2000/svg"
   xmlns:svg="http://www.w3.org/2000/svg">
  <defs
     id="defs18" />
  <sodipodi:namedview
     id="namedview16"
     pagecolor="#ffffff"
     bordercolor="#666666"
     borderopacity="1.0"
     inkscape:pageshadow="2"
     inkscape:pageopacity="0.0"
     inkscape:pagecheckerboard="0"
     showgrid="false"
     inkscape:zoom="13.416667"
     inkscape:cx="23.962733"
     inkscape:cy="18.037267"
     inkscape:window-width="1829"
     inkscape:window-height="1162"
     inkscape:window-x="1603"
     inkscape:window-y="104"
     inkscape:window-maximized="0"
     inkscape:current-layer="svg14" />
  <g
     data-name="Layer 2"
     id="g12"
     transform="scale(4)">
    <g
       data-name="done-all"
       id="g10">
      <rect
         width="24"
         height="24"
         opacity="0"
         id="rect2"
         x="0"
         y="0" />
      <path
         d="m 16.62,6.21 a 1,1 0 0 0 -1.41,0.17 l -7,9 -3.43,-4.18 a 1,1 0 1 0 -1.56,1.25 l 4.17,5.18 A 1,1 0 0 0 8.17,18 1,1 0 0 0 9,17.62 l 7.83,-10 A 1,1 0 0 0 16.62,6.21 Z"
         id="path4" />
      <path
         d="m 21.62,6.21 a 1,1 0 0 0 -1.41,0.17 l -7,9 -0.61,-0.75 -1.26,1.62 1.1,1.37 a 1,1 0 0 0 0.78,0.37 1,1 0 0 0 0.78,-0.38 l 7.83,-10 a 1,1 0 0 0 -0.21,-1.4 z"
         id="path6" />
      <path
         d="M 8.71,13.06 10,11.44 9.8,11.2 A 1,1 0 0 0 8.37,11 1,1 0 0 0 8.22,12.41 Z"
         id="path8" />
    </g>
  </g>
</svg>
