<?xml version="1.0" encoding="UTF-8" standalone="no"?>
<svg
   xmlns:dc="http://purl.org/dc/elements/1.1/"
   xmlns:cc="http://creativecommons.org/ns#"
   xmlns:rdf="http://www.w3.org/1999/02/22-rdf-syntax-ns#"
   xmlns:svg="http://www.w3.org/2000/svg"
   xmlns="http://www.w3.org/2000/svg"
   xmlns:sodipodi="http://sodipodi.sourceforge.net/DTD/sodipodi-0.dtd"
   xmlns:inkscape="http://www.inkscape.org/namespaces/inkscape"
   enable-background="new 0 0 50 50"
   height="16"
   id="Layer_1"
   version="1.1"
   viewBox="0 0 16 16"
   width="16"
   xml:space="preserve"
   inkscape:version="0.48.4 r9939"
   sodipodi:docname="handset.svg"><metadata
     id="metadata11"><rdf:RDF><cc:Work
         rdf:about=""><dc:format>image/svg+xml</dc:format><dc:type
           rdf:resource="http://purl.org/dc/dcmitype/StillImage" /><dc:title></dc:title></cc:Work></rdf:RDF></metadata><defs
     id="defs9" /><sodipodi:namedview
     pagecolor="#ffffff"
     bordercolor="#666666"
     borderopacity="1"
     objecttolerance="10"
     gridtolerance="10"
     guidetolerance="10"
     inkscape:pageopacity="0"
     inkscape:pageshadow="2"
     inkscape:window-width="1782"
     inkscape:window-height="1130"
     id="namedview7"
     showgrid="true"
     inkscape:zoom="57.5"
     inkscape:cx="8"
     inkscape:cy="8"
     inkscape:window-x="0"
     inkscape:window-y="0"
     inkscape:window-maximized="0"
     inkscape:current-layer="layer1"><inkscape:grid
       type="xygrid"
       id="grid3756"
       empspacing="10"
       visible="true"
       enabled="true"
       snapvisiblegridlinesonly="true"
       spacingx="0.5px"
       spacingy="0.5px" /></sodipodi:namedview><rect
     height="50"
     width="50"
     id="rect3"
     x="0"
     y="-34"
     style="fill:none" /><g
     inkscape:groupmode="layer"
     id="layer1"
     inkscape:label="Handset"><path
       d="m 5.5396163,9.252177 c 0,0 0.5563174,0.971756 0.6899968,1.226155 0.1341593,0.253679 0.1679992,0.516477 0.07056,0.676077 -0.1478397,0.241679 -1.4978334,2.271109 -1.6173529,2.441988 -0.1197594,0.17088 -0.4617578,0.253198 -0.7967963,0.01824 C 3.5507455,13.380878 2.2259516,12.301363 2.2401116,11.843925 2.2549916,11.385768 2.2967516,9.480896 5.8897746,5.888833 9.481838,2.29725 11.387189,2.25477 11.845107,2.24013 c 0.457919,-0.01464 1.537914,1.310154 1.772152,1.645192 0.233999,0.335519 0.14592,0.677997 -0.01872,0.797037 -0.18744,0.135359 -2.210391,1.469753 -2.44247,1.616632 -0.158159,0.10056 -0.422398,0.0636 -0.676316,-0.07056 C 10.225114,6.094992 9.2535981,5.538675 9.2535981,5.538675 c 0,0 -0.6688769,0.392158 -1.9948708,1.718392 -1.3262339,1.326474 -1.719112,1.99511 -1.719112,1.99511 z"
       stroke-miterlimit="10"
       id="path5"
       inkscape:connector-curvature="0"
       style="fill:#333333;fill-opacity:1;stroke:#222222;stroke-width:0.47999778;stroke-miterlimit:10;stroke-opacity:1" /></g></svg>