<?xml version="1.0" encoding="UTF-8" standalone="no"?>
<svg
   xmlns:dc="http://purl.org/dc/elements/1.1/"
   xmlns:cc="http://creativecommons.org/ns#"
   xmlns:rdf="http://www.w3.org/1999/02/22-rdf-syntax-ns#"
   xmlns:svg="http://www.w3.org/2000/svg"
   xmlns="http://www.w3.org/2000/svg"
   xmlns:sodipodi="http://sodipodi.sourceforge.net/DTD/sodipodi-0.dtd"
   xmlns:inkscape="http://www.inkscape.org/namespaces/inkscape"
   viewBox="0 0 12 12"
   id="svg2"
   version="1.1"
   inkscape:version="0.91 r13725"
   sodipodi:docname="mic12-on.svg"
   width="12"
   height="12"
   enable-background="new">
  <metadata
     id="metadata12">
    <rdf:RDF>
      <cc:Work
         rdf:about="">
        <dc:format>image/svg+xml</dc:format>
        <dc:type
           rdf:resource="http://purl.org/dc/dcmitype/StillImage" />
        <dc:title />
      </cc:Work>
    </rdf:RDF>
  </metadata>
  <sodipodi:namedview
     pagecolor="#ffffff"
     bordercolor="#666666"
     borderopacity="1"
     objecttolerance="10"
     gridtolerance="10"
     guidetolerance="10"
     inkscape:pageopacity="0"
     inkscape:pageshadow="2"
     inkscape:window-width="1850"
     inkscape:window-height="1168"
     id="namedview10"
     showgrid="true"
     inkscape:zoom="78.916667"
     inkscape:cx="6"
     inkscape:cy="6"
     inkscape:window-x="2"
     inkscape:window-y="0"
     inkscape:window-maximized="1"
     inkscape:current-layer="layer1"
     showguides="true"
     inkscape:guide-bbox="true">
    <inkscape:grid
       type="xygrid"
       id="grid4140"
       spacingx="0.5"
       spacingy="0.5"
       empspacing="5" />
  </sodipodi:namedview>
  <defs
     id="defs3051">
    <style
       type="text/css"
       id="current-color-scheme">
      .ColorScheme-Text {
        color:#4d4d4d;
      }
      .ColorScheme-NegativeText {
        color:#da4453;
      }
      </style>
  </defs>
  <g
     inkscape:groupmode="layer"
     id="layer1"
     inkscape:label="Microphone"
     style="display:inline;opacity:1">
    <path
       inkscape:connector-curvature="0"
       style="color:#4d4d4d;opacity:1;fill:#444444;fill-opacity:1;stroke:none"
       d="M 6,0 C 4.892,0 4,0.892 4,2 L 4,6 C 4,7.108 4.892,8 6,8 7.108,8 8,7.108 8,6 L 8,2 C 8,0.892 7.108,0 6,0 Z M 2,5 2,6 C 2,7.847 3.286,9.405469 5,9.8554688 L 5,11 4,11 4,12 8,12 8,11 7,11 7,9.8554688 C 8.714,9.404469 10,7.845 10,6 L 10,5 9,5 9,6 C 9,7.645 7.645,9 6,9 4.355,9 3,7.645 3,6 L 3,5 2,5 Z"
       class="ColorScheme-Text"
       id="path6" />
    <path
       style="display:inline;fill:none;fill-rule:evenodd;stroke:#444444;stroke-width:1.20000005;stroke-linecap:round;stroke-linejoin:miter;stroke-miterlimit:4;stroke-dasharray:none;stroke-opacity:1"
       d="M 1.6060602,1.6060601 C 10.39394,10.39394 10.39394,10.39394 10.39394,10.39394"
       id="path4377-5"
       inkscape:connector-curvature="0" />
  </g>
</svg>
