<?xml version="1.0" encoding="UTF-8" standalone="no"?>
<svg
   xmlns:dc="http://purl.org/dc/elements/1.1/"
   xmlns:cc="http://creativecommons.org/ns#"
   xmlns:rdf="http://www.w3.org/1999/02/22-rdf-syntax-ns#"
   xmlns:svg="http://www.w3.org/2000/svg"
   xmlns="http://www.w3.org/2000/svg"
   xmlns:sodipodi="http://sodipodi.sourceforge.net/DTD/sodipodi-0.dtd"
   xmlns:inkscape="http://www.inkscape.org/namespaces/inkscape"
   height="16"
   id="Layer_1"
   version="1.1"
   viewBox="0 0 16 16"
   width="16"
   x="0px"
   xml:space="preserve"
   y="0px"
   inkscape:version="0.48.4 r9939"
   sodipodi:docname="people.svg"
   inkscape:label="Layer"><metadata
     id="metadata19"><rdf:RDF><cc:Work
         rdf:about=""><dc:format>image/svg+xml</dc:format><dc:type
           rdf:resource="http://purl.org/dc/dcmitype/StillImage" /><dc:title /></cc:Work></rdf:RDF></metadata><defs
     id="defs17" /><sodipodi:namedview
     pagecolor="#ffffff"
     bordercolor="#666666"
     borderopacity="1"
     objecttolerance="10"
     gridtolerance="10"
     guidetolerance="10"
     inkscape:pageopacity="0"
     inkscape:pageshadow="2"
     inkscape:window-width="1575"
     inkscape:window-height="1099"
     id="namedview15"
     showgrid="true"
     inkscape:zoom="54.6875"
     inkscape:cx="5.7691429"
     inkscape:cy="8"
     inkscape:window-x="133"
     inkscape:window-y="24"
     inkscape:window-maximized="0"
     inkscape:current-layer="layer1"><inkscape:grid
       type="xygrid"
       id="grid3018"
       empspacing="10"
       visible="true"
       enabled="true"
       snapvisiblegridlinesonly="true"
       spacingx="0.5px"
       spacingy="0.5px" /></sodipodi:namedview><g
     inkscape:groupmode="layer"
     id="layer1"
     inkscape:label="Person"
     style="display:inline"><path
       d="m 13.364029,12.379035 c -0.644604,-0.216591 -1.697842,-0.283234 -2.158273,-0.455398 -0.322303,-0.122179 -0.834533,-0.249912 -0.995685,-0.44429 -0.166905,-0.188823 -0.166905,-1.5605687 -0.166905,-1.5605687 0,0 0.402877,-0.3609857 0.569783,-0.7664005 0.166907,-0.4054147 0.27626,-1.5050329 0.27626,-1.5050329 0,0 0.03453,0.011107 0.08633,0.011107 0.120864,0 0.339569,-0.07775 0.443166,-0.5886844 0.126618,-0.6275598 0.368345,-0.9552238 0.305036,-1.4161749 -0.04605,-0.3110031 -0.184173,-0.3609858 -0.264748,-0.3609858 -0.04029,0 -0.06907,0.011107 -0.06907,0.011107 0,0 0.328058,-0.4665047 0.328058,-2.054842 C 11.717988,1.6161056 10.411512,0.00555364 8.0000018,4.0000001e-8 5.5827357,0.00554704 4.2820167,1.6161056 4.2820167,3.2488719 c 0,1.5827837 0.3280576,2.054842 0.3280576,2.054842 0,0 -0.028776,-0.011107 -0.069064,-0.011107 -0.086331,0 -0.2244605,0.049983 -0.2647483,0.3609858 -0.06331,0.4609511 0.1726619,0.7941687 0.3050361,1.4161749 0.1035968,0.5109337 0.3223022,0.5886844 0.4431654,0.5886844 0.051798,0 0.086331,-0.011107 0.086331,-0.011107 0,0 0.1093525,1.1051718 0.276259,1.5050329 0.1669064,0.4054148 0.5697836,0.7664005 0.5697836,0.7664005 0,0 0,1.3717456 -0.1669065,1.5605686 C 5.6230213,11.668171 5.1165472,11.801458 4.794245,11.923637 4.3338133,12.095801 3.2805757,12.162444 2.6359714,12.379035 1.991367,12.595627 2.5e-8,13.500867 2.5e-8,16 H 16 c 0,-2.499133 -1.985612,-3.404373 -2.635971,-3.620965 z"
       id="path9-4"
       inkscape:connector-curvature="0"
       style="fill:#f0f0f0;fill-opacity:1" /></g></svg>