<?xml version="1.0" encoding="UTF-8" standalone="no"?>
<svg
   xmlns:dc="http://purl.org/dc/elements/1.1/"
   xmlns:cc="http://creativecommons.org/ns#"
   xmlns:rdf="http://www.w3.org/1999/02/22-rdf-syntax-ns#"
   xmlns:svg="http://www.w3.org/2000/svg"
   xmlns="http://www.w3.org/2000/svg"
   xmlns:sodipodi="http://sodipodi.sourceforge.net/DTD/sodipodi-0.dtd"
   xmlns:inkscape="http://www.inkscape.org/namespaces/inkscape"
   enable-background="new 0 0 96 96"
   height="96px"
   id="bigger"
   version="1.1"
   viewBox="0 0 96 96"
   width="96px"
   xml:space="preserve"
   inkscape:version="0.48.4 r9939"
   sodipodi:docname="scale.svg"><metadata
     id="metadata11"><rdf:RDF><cc:Work
         rdf:about=""><dc:format>image/svg+xml</dc:format><dc:type
           rdf:resource="http://purl.org/dc/dcmitype/StillImage" /><dc:title /></cc:Work></rdf:RDF></metadata><defs
     id="defs9" /><sodipodi:namedview
     pagecolor="#ffffff"
     bordercolor="#666666"
     borderopacity="1"
     objecttolerance="10"
     gridtolerance="10"
     guidetolerance="10"
     inkscape:pageopacity="0"
     inkscape:pageshadow="2"
     inkscape:window-width="1623"
     inkscape:window-height="1075"
     id="namedview7"
     showgrid="true"
     inkscape:zoom="9.0104167"
     inkscape:cx="48"
     inkscape:cy="48"
     inkscape:window-x="114"
     inkscape:window-y="10"
     inkscape:window-maximized="0"
     inkscape:current-layer="g4423"
     showguides="true"
     inkscape:guide-bbox="true"><inkscape:grid
       type="xygrid"
       id="grid2988"
       empspacing="5"
       visible="true"
       enabled="true"
       snapvisiblegridlinesonly="true" /></sodipodi:namedview><g
     style="display:inline"
     inkscape:label="Scale"
     id="g4423"
     inkscape:groupmode="layer"><path
       inkscape:connector-curvature="0"
       id="path4425"
       d="M 80,4 H 68 c -2.209,0 -4,1.791 -4,4 0,2.209 1.791,4 4,4 h 12 c 2.21,0 4,1.79 4,4 v 12 c 0,2.209 1.791,4 4,4 2.209,0 4,-1.791 4,-4 V 16 C 92,9.373 86.627,4 80,4 z" /><path
       inkscape:connector-curvature="0"
       id="path4427"
       d="M 28,4 H 16 C 9.373,4 4,9.373 4,16 v 12 c 0,2.209 1.791,4 4,4 2.209,0 4,-1.791 4,-4 V 16 c 0,-2.21 1.79,-4 4,-4 h 12 c 2.209,0 4,-1.791 4,-4 0,-2.209 -1.791,-4 -4,-4 z" /><path
       inkscape:connector-curvature="0"
       id="path4429"
       d="m 88,64 c -2.209,0 -4,1.791 -4,4 v 12 c 0,2.21 -1.79,4 -4,4 H 68 c -2.209,0 -4,1.791 -4,4 0,2.209 1.791,4 4,4 h 12 c 6.627,0 12,-5.373 12,-12 V 68 c 0,-2.209 -1.791,-4 -4,-4 z" /><path
       inkscape:connector-curvature="0"
       id="path4431"
       d="M 28,84 H 16 c -2.21,0 -4,-1.79 -4,-4 V 68 c 0,-2.209 -1.791,-4 -4,-4 -2.209,0 -4,1.791 -4,4 v 12 c 0,6.627 5.373,12 12,12 h 12 c 2.209,0 4,-1.791 4,-4 0,-2.209 -1.791,-4 -4,-4 z" /><rect
       ry="10"
       y="32"
       x="24"
       height="32"
       width="48"
       id="rect4433"
       style="fill:#000000;fill-opacity:1;stroke:none" /></g></svg>