<?xml version="1.0" encoding="UTF-8" standalone="no"?>
<svg
   xmlns:dc="http://purl.org/dc/elements/1.1/"
   xmlns:cc="http://creativecommons.org/ns#"
   xmlns:rdf="http://www.w3.org/1999/02/22-rdf-syntax-ns#"
   xmlns:svg="http://www.w3.org/2000/svg"
   xmlns="http://www.w3.org/2000/svg"
   xmlns:xlink="http://www.w3.org/1999/xlink"
   xmlns:sodipodi="http://sodipodi.sourceforge.net/DTD/sodipodi-0.dtd"
   xmlns:inkscape="http://www.inkscape.org/namespaces/inkscape"
   sodipodi:docname="actions.svg"
   inkscape:version="0.48.5 r10040"
   xml:space="preserve"
   width="96px"
   viewBox="0 0 96 96"
   version="1.1"
   id="bigger"
   height="96px"
   enable-background="new 0 0 96 96"><metadata
     id="metadata11"><rdf:RDF><cc:Work
         rdf:about=""><dc:format>image/svg+xml</dc:format><dc:type
           rdf:resource="http://purl.org/dc/dcmitype/StillImage" /><dc:title></dc:title></cc:Work></rdf:RDF></metadata><defs
     id="defs9"><linearGradient
       id="linearGradient3983"><stop
         style="stop-color:#00ff00;stop-opacity:1;"
         offset="0"
         id="stop3985" /><stop
         style="stop-color:#00d000;stop-opacity:1;"
         offset="1"
         id="stop3987" /></linearGradient><linearGradient
       id="linearGradient12315"><stop
         style="stop-color:#ff0000;stop-opacity:1;"
         offset="0"
         id="stop12317" /><stop
         style="stop-color:#d30000;stop-opacity:1;"
         offset="1"
         id="stop12319" /></linearGradient><linearGradient
       id="linearGradient11765"><stop
         style="stop-color:#ff0000;stop-opacity:1;"
         offset="0"
         id="stop11767" /><stop
         style="stop-color:#d00000;stop-opacity:1;"
         offset="1"
         id="stop11769" /></linearGradient><linearGradient
       id="linearGradient11102"><stop
         style="stop-color:#000000;stop-opacity:0.43137255;"
         offset="0"
         id="stop11104" /><stop
         style="stop-color:#464646;stop-opacity:1;"
         offset="1"
         id="stop11106" /></linearGradient><radialGradient
       inkscape:collect="always"
       xlink:href="#linearGradient11765"
       id="radialGradient11771"
       cx="12"
       cy="18"
       fx="12"
       fy="18"
       r="29.642775"
       gradientUnits="userSpaceOnUse" /><radialGradient
       inkscape:collect="always"
       xlink:href="#linearGradient12315"
       id="radialGradient12321"
       cx="48"
       cy="48"
       fx="48"
       fy="48"
       r="44"
       gradientUnits="userSpaceOnUse" /><radialGradient
       inkscape:collect="always"
       xlink:href="#linearGradient3983"
       id="radialGradient3989"
       cx="12"
       cy="18"
       fx="12"
       fy="18"
       r="29.642775"
       gradientUnits="userSpaceOnUse" /></defs><sodipodi:namedview
     pagecolor="#ffffff"
     bordercolor="#666666"
     borderopacity="1"
     objecttolerance="10"
     gridtolerance="10"
     guidetolerance="10"
     inkscape:pageopacity="0"
     inkscape:pageshadow="2"
     inkscape:window-width="1623"
     inkscape:window-height="1075"
     id="namedview7"
     showgrid="true"
     inkscape:zoom="9.0104167"
     inkscape:cx="48"
     inkscape:cy="48"
     inkscape:window-x="114"
     inkscape:window-y="10"
     inkscape:window-maximized="0"
     inkscape:current-layer="g4423"
     showguides="true"
     inkscape:guide-bbox="true"><inkscape:grid
       type="xygrid"
       id="grid2988"
       empspacing="5"
       visible="true"
       enabled="true"
       snapvisiblegridlinesonly="true" /></sodipodi:namedview><g
     inkscape:label="Close"
     id="g12004"
     inkscape:groupmode="layer"
     style="display:none"><path
       transform="matrix(1.4843415,0,0,1.4843415,30.187902,21.281853)"
       d="m 38.947977,18 a 26.947977,26.947977 0 1 1 -53.895954,0 26.947977,26.947977 0 1 1 53.895954,0 z"
       sodipodi:ry="26.947977"
       sodipodi:rx="26.947977"
       sodipodi:cy="18"
       sodipodi:cx="12"
       id="path12006"
       style="fill:none;stroke:#000000;stroke-width:5.38959551;stroke-linecap:round;stroke-linejoin:round;stroke-miterlimit:4;stroke-opacity:1;stroke-dasharray:none"
       sodipodi:type="arc" /><path
       inkscape:connector-curvature="0"
       id="path12008"
       d="M 63.556404,32.443596 32.443596,63.556404"
       style="fill:none;stroke:#000000;stroke-width:7.99999952;stroke-linecap:round;stroke-linejoin:round;stroke-miterlimit:4;stroke-opacity:1;stroke-dasharray:none" /><path
       inkscape:connector-curvature="0"
       id="path12010"
       d="M 63.556404,63.556404 32.443596,32.443596"
       style="fill:none;stroke:#000000;stroke-width:7.99999952;stroke-linecap:round;stroke-linejoin:round;stroke-miterlimit:4;stroke-opacity:1;stroke-dasharray:none" /></g><g
     inkscape:groupmode="layer"
     id="layer15"
     inkscape:label="Close active"
     style="display:none"><path
       sodipodi:type="arc"
       style="fill:url(#radialGradient11771);fill-opacity:1;fill-rule:nonzero;stroke:#000000;stroke-width:5.38959551;stroke-linecap:round;stroke-linejoin:round;stroke-miterlimit:4;stroke-opacity:1;stroke-dasharray:none"
       id="path11668"
       sodipodi:cx="12"
       sodipodi:cy="18"
       sodipodi:rx="26.947977"
       sodipodi:ry="26.947977"
       d="m 38.947977,18 a 26.947977,26.947977 0 1 1 -53.895954,0 26.947977,26.947977 0 1 1 53.895954,0 z"
       transform="matrix(1.4843415,0,0,1.4843415,30.187902,21.281853)" /><path
       style="fill:none;stroke:#000000;stroke-width:7.99999952;stroke-linecap:round;stroke-linejoin:round;stroke-miterlimit:4;stroke-opacity:1;stroke-dasharray:none"
       d="M 63.556404,32.443596 32.443596,63.556404"
       id="path11670"
       inkscape:connector-curvature="0" /><path
       style="fill:none;stroke:#000000;stroke-width:7.99999952;stroke-linecap:round;stroke-linejoin:round;stroke-miterlimit:4;stroke-opacity:1;stroke-dasharray:none"
       d="M 63.556404,63.556404 32.443596,32.443596"
       id="path11670-8"
       inkscape:connector-curvature="0" /></g><g
     style="display:none"
     inkscape:groupmode="layer"
     id="g12232"
     inkscape:label="Close alt"><rect
       ry="8.780488"
       y="8"
       x="8"
       height="80"
       width="80"
       id="rect5204-8"
       style="fill:none;stroke:#000000;stroke-width:8;stroke-linecap:round;stroke-linejoin:round;stroke-miterlimit:4;stroke-opacity:1;stroke-dasharray:none;stroke-dashoffset:1.6;display:inline" /><path
       style="fill:none;stroke:#000000;stroke-width:7.99999952;stroke-linecap:round;stroke-linejoin:round;stroke-miterlimit:4;stroke-opacity:1;stroke-dasharray:none"
       d="M 63.556404,32.443596 32.443596,63.556404"
       id="path12236"
       inkscape:connector-curvature="0" /><path
       style="fill:none;stroke:#000000;stroke-width:7.99999952;stroke-linecap:round;stroke-linejoin:round;stroke-miterlimit:4;stroke-opacity:1;stroke-dasharray:none"
       d="M 63.556404,63.556404 32.443596,32.443596"
       id="path12238"
       inkscape:connector-curvature="0" /></g><g
     inkscape:label="Close active alt"
     id="g12269"
     inkscape:groupmode="layer"
     style="display:none"><rect
       style="fill:url(#radialGradient12321);fill-opacity:1;stroke:#000000;stroke-width:8;stroke-linecap:round;stroke-linejoin:round;stroke-miterlimit:4;stroke-opacity:1;stroke-dasharray:none;stroke-dashoffset:1.6;display:inline"
       id="rect12271"
       width="80"
       height="80"
       x="8"
       y="8"
       ry="8.780488" /><path
       inkscape:connector-curvature="0"
       id="path12273"
       d="M 63.556404,32.443596 32.443596,63.556404"
       style="fill:none;stroke:#ffffff;stroke-width:7.99999952;stroke-linecap:round;stroke-linejoin:round;stroke-miterlimit:4;stroke-opacity:1;stroke-dasharray:none" /><path
       inkscape:connector-curvature="0"
       id="path12275"
       d="M 63.556404,63.556404 32.443596,32.443596"
       style="fill:none;stroke:#ffffff;stroke-width:7.99999952;stroke-linecap:round;stroke-linejoin:round;stroke-miterlimit:4;stroke-opacity:1;stroke-dasharray:none" /></g><g
     style="display:none"
     inkscape:groupmode="layer"
     id="g3082"
     inkscape:label="Minimize"><path
       sodipodi:type="arc"
       style="fill:none;stroke:#000000;stroke-width:5.38959551;stroke-linecap:round;stroke-linejoin:round;stroke-miterlimit:4;stroke-opacity:1;stroke-dasharray:none"
       id="path3084"
       sodipodi:cx="12"
       sodipodi:cy="18"
       sodipodi:rx="26.947977"
       sodipodi:ry="26.947977"
       d="m 38.947977,18 a 26.947977,26.947977 0 1 1 -53.895954,0 26.947977,26.947977 0 1 1 53.895954,0 z"
       transform="matrix(1.4843415,0,0,1.4843415,30.187902,21.281853)" /><path
       style="fill:none;stroke:#000000;stroke-width:7.99999952;stroke-linecap:round;stroke-linejoin:round;stroke-miterlimit:4;stroke-opacity:1;stroke-dasharray:none"
       d="M 70.000078,48 25.999922,48"
       id="path3088"
       inkscape:connector-curvature="0" /></g><g
     inkscape:label="Minimize active"
     id="g3101"
     inkscape:groupmode="layer"
     style="display:none"><path
       transform="matrix(1.4843415,0,0,1.4843415,30.187902,21.281853)"
       d="m 38.947977,18 a 26.947977,26.947977 0 1 1 -53.895954,0 26.947977,26.947977 0 1 1 53.895954,0 z"
       sodipodi:ry="26.947977"
       sodipodi:rx="26.947977"
       sodipodi:cy="18"
       sodipodi:cx="12"
       id="path3103"
       style="fill:url(#radialGradient3989);fill-opacity:1;stroke:#000000;stroke-width:5.38959551;stroke-linecap:round;stroke-linejoin:round;stroke-miterlimit:4;stroke-opacity:1;stroke-dasharray:none"
       sodipodi:type="arc" /><path
       inkscape:connector-curvature="0"
       id="path3105"
       d="M 70.000078,48 25.999922,48"
       style="fill:none;stroke:#000000;stroke-width:7.99999952;stroke-linecap:round;stroke-linejoin:round;stroke-miterlimit:4;stroke-opacity:1;stroke-dasharray:none" /></g><g
     style="display:none"
     inkscape:label="Fullscreen enter"
     id="g6591"
     inkscape:groupmode="layer"><path
       style="fill:none;stroke:#000000;stroke-width:7.99999952;stroke-linecap:round;stroke-linejoin:round;stroke-miterlimit:4;stroke-opacity:1;stroke-dasharray:none"
       d="m 80,15.999999 c -24.000001,24 -24.000001,24 -24.000001,24"
       id="path6595"
       inkscape:connector-curvature="0" /><path
       inkscape:connector-curvature="0"
       id="path6597"
       d="m 60,12 c 24,0 24,0 24,0 l 0,24"
       style="fill:none;stroke:#000000;stroke-width:8;stroke-linecap:round;stroke-linejoin:round;stroke-miterlimit:4;stroke-opacity:1;stroke-dasharray:none" /><path
       style="fill:none;stroke:#000000;stroke-width:7.99999952;stroke-linecap:round;stroke-linejoin:round;stroke-miterlimit:4;stroke-opacity:1;stroke-dasharray:none"
       d="m 16,80.000001 c 24.000001,-24 24.000001,-24 24.000001,-24"
       id="path6601"
       inkscape:connector-curvature="0" /><path
       inkscape:connector-curvature="0"
       id="path6603"
       d="M 36,84 C 12,84 12,84 12,84 L 12,60"
       style="fill:none;stroke:#000000;stroke-width:8;stroke-linecap:round;stroke-linejoin:round;stroke-miterlimit:4;stroke-opacity:1;stroke-dasharray:none" /></g><g
     inkscape:groupmode="layer"
     id="g7032"
     inkscape:label="Fullscreen exit"
     style="display:none"><path
       inkscape:connector-curvature="0"
       id="path7034"
       d="M 60,36 C 84.000001,12 84.000001,12 84.000001,12"
       style="fill:none;stroke:#000000;stroke-width:7.99999952;stroke-linecap:round;stroke-linejoin:round;stroke-miterlimit:4;stroke-opacity:1;stroke-dasharray:none" /><path
       style="fill:none;stroke:#000000;stroke-width:8;stroke-linecap:round;stroke-linejoin:round;stroke-miterlimit:4;stroke-opacity:1;stroke-dasharray:none"
       d="m 80,39.999999 c -24,0 -24,0 -24,0 l 0,-24"
       id="path7036"
       inkscape:connector-curvature="0" /><path
       inkscape:connector-curvature="0"
       id="path7038"
       d="M 36.000001,59.999999 C 12,83.999999 12,83.999999 12,83.999999"
       style="fill:none;stroke:#000000;stroke-width:7.99999952;stroke-linecap:round;stroke-linejoin:round;stroke-miterlimit:4;stroke-opacity:1;stroke-dasharray:none" /><path
       style="fill:none;stroke:#000000;stroke-width:8;stroke-linecap:round;stroke-linejoin:round;stroke-miterlimit:4;stroke-opacity:1;stroke-dasharray:none"
       d="m 16.000001,56 c 24,0 24,0 24,0 l 0,24"
       id="path7040"
       inkscape:connector-curvature="0" /></g><g
     inkscape:groupmode="layer"
     id="g6442"
     inkscape:label="Fullscreen enter 28"
     style="display:none"><path
       inkscape:connector-curvature="0"
       id="path6446"
       d="m 80,15.999999 c -24.000001,24 -24.000001,24 -24.000001,24"
       style="fill:none;stroke:#000000;stroke-width:7.99999952;stroke-linecap:round;stroke-linejoin:round;stroke-miterlimit:4;stroke-opacity:1;stroke-dasharray:none" /><path
       style="fill:none;stroke:#000000;stroke-width:8;stroke-linecap:round;stroke-linejoin:round;stroke-miterlimit:4;stroke-opacity:1;stroke-dasharray:none"
       d="m 64,12 c 20,0 20,0 20,0 l 0,20"
       id="path6463"
       inkscape:connector-curvature="0" /><path
       inkscape:connector-curvature="0"
       id="path6446-2"
       d="m 16,80.000001 c 24.000001,-24 24.000001,-24 24.000001,-24"
       style="fill:none;stroke:#000000;stroke-width:7.99999952;stroke-linecap:round;stroke-linejoin:round;stroke-miterlimit:4;stroke-opacity:1;stroke-dasharray:none" /><path
       style="fill:none;stroke:#000000;stroke-width:8;stroke-linecap:round;stroke-linejoin:round;stroke-miterlimit:4;stroke-opacity:1;stroke-dasharray:none"
       d="M 32,84 C 12,84 12,84 12,84 L 12,64"
       id="path6463-5"
       inkscape:connector-curvature="0" /></g><g
     style="display:none"
     inkscape:label="Fullscreen enter full 28"
     id="g6203"
     inkscape:groupmode="layer"><path
       style="fill:#000000;fill-opacity:1;stroke:#000000;stroke-width:8;stroke-linecap:round;stroke-linejoin:round;stroke-miterlimit:4;stroke-opacity:1;stroke-dasharray:none"
       d="m 64,12 20,0 0,20 z"
       id="path6209"
       inkscape:connector-curvature="0" /><path
       style="fill:none;stroke:#000000;stroke-width:8;stroke-linecap:round;stroke-linejoin:round;stroke-miterlimit:4;stroke-opacity:1;stroke-dasharray:none"
       d="M 80,16 C 56,40 56,40 56,40"
       id="path6211"
       inkscape:connector-curvature="0" /><path
       style="fill:#000000;fill-opacity:1;stroke:#000000;stroke-width:8;stroke-linecap:round;stroke-linejoin:round;stroke-miterlimit:4;stroke-opacity:1;stroke-dasharray:none"
       d="M 32,84 12,84 12,64 z"
       id="path6209-7"
       inkscape:connector-curvature="0" /><path
       style="fill:none;stroke:#000000;stroke-width:7.99999952;stroke-linecap:round;stroke-linejoin:round;stroke-miterlimit:4;stroke-opacity:1;stroke-dasharray:none"
       d="M 15.999999,79.999996 C 39.999998,56 39.999998,56 39.999998,56"
       id="path6211-7"
       inkscape:connector-curvature="0" /></g><g
     inkscape:groupmode="layer"
     id="g6925"
     inkscape:label="Fullscreen enter full 32"
     style="display:none"><path
       inkscape:connector-curvature="0"
       id="path6927"
       d="m 60,12 24,0 0,24 z"
       style="fill:#000000;fill-opacity:1;stroke:#000000;stroke-width:8;stroke-linecap:round;stroke-linejoin:round;stroke-miterlimit:4;stroke-opacity:1;stroke-dasharray:none" /><path
       inkscape:connector-curvature="0"
       id="path6929"
       d="M 80,16 C 56,40 56,40 56,40"
       style="fill:none;stroke:#000000;stroke-width:8;stroke-linecap:round;stroke-linejoin:round;stroke-miterlimit:4;stroke-opacity:1;stroke-dasharray:none" /><path
       inkscape:connector-curvature="0"
       id="path6931"
       d="M 36,84 12,84 12,60 z"
       style="fill:#000000;fill-opacity:1;stroke:#000000;stroke-width:8;stroke-linecap:round;stroke-linejoin:round;stroke-miterlimit:4;stroke-opacity:1;stroke-dasharray:none" /><path
       inkscape:connector-curvature="0"
       id="path6933"
       d="M 15.999999,79.999996 C 39.999998,56 39.999998,56 39.999998,56"
       style="fill:none;stroke:#000000;stroke-width:7.99999952;stroke-linecap:round;stroke-linejoin:round;stroke-miterlimit:4;stroke-opacity:1;stroke-dasharray:none" /></g><g
     inkscape:groupmode="layer"
     id="g3096"
     inkscape:label="Roll down"
     style="display:none"><path
       inkscape:connector-curvature="0"
       id="path3102"
       d="m 48.000004,78.000001 c 0,-61.000109 0,-61.000109 0,-61.000109"
       style="fill:none;stroke:#000000;stroke-width:7.99999714;stroke-linecap:round;stroke-linejoin:round;stroke-miterlimit:4;stroke-opacity:1;stroke-dasharray:none" /><path
       style="fill:none;stroke:#000000;stroke-width:8;stroke-linecap:round;stroke-linejoin:round;stroke-miterlimit:4;stroke-opacity:1;stroke-dasharray:none"
       d="M 66.000001,64.000001 C 48,84.000001 48,84.000001 48,84.000001 l -18.000001,-20"
       id="path3104"
       inkscape:connector-curvature="0" /><path
       style="fill:none;stroke:#000000;stroke-width:12.00000095;stroke-linecap:round;stroke-linejoin:round;stroke-miterlimit:4;stroke-opacity:1;stroke-dasharray:none"
       d="m 13.999872,14 68.000256,0"
       id="path3885"
       inkscape:connector-curvature="0" /></g><g
     style="display:none"
     inkscape:label="Roll up"
     id="g3910"
     inkscape:groupmode="layer"><path
       style="fill:none;stroke:#000000;stroke-width:7.99999762;stroke-linecap:round;stroke-linejoin:round;stroke-miterlimit:4;stroke-opacity:1;stroke-dasharray:none"
       d="m 48,27.99993 c 0,56.000071 0,56.000071 0,56.000071"
       id="path3912"
       inkscape:connector-curvature="0" /><path
       inkscape:connector-curvature="0"
       id="path3914"
       d="M 29.999999,43.999929 C 48,23.999929 48,23.999929 48,23.999929 l 18.000001,20"
       style="fill:none;stroke:#000000;stroke-width:8;stroke-linecap:round;stroke-linejoin:round;stroke-miterlimit:4;stroke-opacity:1;stroke-dasharray:none" /><path
       inkscape:connector-curvature="0"
       id="path3916"
       d="m 13.999872,14 68.000256,0"
       style="fill:none;stroke:#000000;stroke-width:12.00000095;stroke-linecap:round;stroke-linejoin:round;stroke-miterlimit:4;stroke-opacity:1;stroke-dasharray:none" /></g><g
     inkscape:groupmode="layer"
     id="g3104"
     inkscape:label="Slide right"
     style="display:none"><path
       inkscape:connector-curvature="0"
       id="path3106"
       d="M 68.00007,48 C 11.999999,48 11.999999,48 11.999999,48"
       style="fill:none;stroke:#000000;stroke-width:7.99999762;stroke-linecap:round;stroke-linejoin:round;stroke-miterlimit:4;stroke-opacity:1;stroke-dasharray:none" /><path
       style="fill:none;stroke:#000000;stroke-width:8;stroke-linecap:round;stroke-linejoin:round;stroke-miterlimit:4;stroke-opacity:1;stroke-dasharray:none"
       d="m 52.000071,29.999999 c 20,18.000001 20,18.000001 20,18.000001 l -20,18.000001"
       id="path3108"
       inkscape:connector-curvature="0" /><path
       style="fill:none;stroke:#000000;stroke-width:12.00000095;stroke-linecap:round;stroke-linejoin:round;stroke-miterlimit:4;stroke-opacity:1;stroke-dasharray:none"
       d="m 82,13.999872 0,68.000256"
       id="path3110"
       inkscape:connector-curvature="0" /></g><g
     style="display:none"
     inkscape:label="Slide left"
     id="g3112"
     inkscape:groupmode="layer"><path
       style="fill:none;stroke:#000000;stroke-width:7.99999762;stroke-linecap:round;stroke-linejoin:round;stroke-miterlimit:4;stroke-opacity:1;stroke-dasharray:none"
       d="m 27.999931,48 c 56.000071,0 56.000071,0 56.000071,0"
       id="path3114"
       inkscape:connector-curvature="0" /><path
       inkscape:connector-curvature="0"
       id="path3116"
       d="M 43.99993,66.000001 C 23.99993,48 23.99993,48 23.99993,48 l 20,-18.000001"
       style="fill:none;stroke:#000000;stroke-width:8;stroke-linecap:round;stroke-linejoin:round;stroke-miterlimit:4;stroke-opacity:1;stroke-dasharray:none" /><path
       inkscape:connector-curvature="0"
       id="path3118"
       d="m 14.000001,82.000128 0,-68.000256"
       style="fill:none;stroke:#000000;stroke-width:12.00000095;stroke-linecap:round;stroke-linejoin:round;stroke-miterlimit:4;stroke-opacity:1;stroke-dasharray:none" /></g><g
     inkscape:groupmode="layer"
     id="layer1"
     inkscape:label="Rectangle expand"
     style="display:none"><path
       style="display:inline"
       inkscape:connector-curvature="0"
       d="m 26.000001,40 c 2.039366,0 3.693084,1.748132 3.699621,3.910841 l 0,34.741523 11.987818,-12.672226 c 1.444553,-1.527024 3.784594,-1.527024 5.229147,0 1.444551,1.527024 1.444551,4.000664 0,5.527688 l -18.302012,19.34691 c -1.444553,1.527019 -3.784595,1.527019 -5.229147,0 L 5.0834144,71.507826 c -1.4445526,-1.527024 -1.4445526,-4.000665 0,-5.527689 1.4445516,-1.527024 3.7845932,-1.527024 5.2291466,0 l 11.987818,12.672226 0,-34.741523 C 22.300379,41.755041 23.960633,40 26.000001,40 z"
       id="path3-4" /><path
       inkscape:connector-curvature="0"
       d="m 40,26 c 0,-2.039367 1.748132,-3.693085 3.910841,-3.699622 l 34.741523,0 -12.672226,-11.987817 c -1.527024,-1.444554 -1.527024,-3.784596 0,-5.2291472 1.527024,-1.4445519 4.000664,-1.4445517 5.527688,1e-7 l 19.34691,18.3020121 c 1.527019,1.444553 1.527019,3.784596 0,5.229147 l -19.34691,18.302013 c -1.527024,1.444553 -4.000665,1.444553 -5.527689,0 -1.527024,-1.444551 -1.527024,-3.784593 0,-5.229146 l 12.672226,-11.987819 -34.741523,0 C 41.755041,29.699621 40,28.039367 40,26 z"
       id="path3" /><rect
       style="fill:none;stroke:#000000;stroke-width:8;stroke-linecap:round;stroke-linejoin:round;stroke-miterlimit:4;stroke-opacity:1;stroke-dasharray:none;stroke-dashoffset:1.6"
       id="rect4278"
       width="28"
       height="28"
       x="12"
       y="12"
       ry="3.2307694" /></g><g
     style="display:none"
     inkscape:groupmode="layer"
     id="g4801"
     inkscape:label="Contents expand"><rect
       style="fill:none;stroke:#000000;stroke-width:8;stroke-linecap:round;stroke-linejoin:round;stroke-miterlimit:4;stroke-opacity:1;stroke-dasharray:none;stroke-dashoffset:1.6"
       id="rect4803"
       width="80"
       height="80"
       x="8"
       y="8"
       ry="8.780488" /><rect
       style="fill:#000000;fill-opacity:1;stroke:#000000;stroke-width:7.99999952;stroke-linecap:round;stroke-linejoin:round;stroke-miterlimit:4;stroke-opacity:1;stroke-dasharray:none;stroke-dashoffset:1.6"
       id="rect4805"
       width="24"
       height="24"
       x="24"
       y="48"
       ry="2.5714285" /><path
       style="fill:none;stroke:#000000;stroke-width:5.99999952;stroke-linecap:round;stroke-linejoin:round;stroke-miterlimit:4;stroke-opacity:1;stroke-dasharray:none"
       d="M 49,47 C 71,25 71,25 71,25"
       id="path4807"
       inkscape:connector-curvature="0" /><path
       style="fill:none;stroke:#000000;stroke-width:6;stroke-linecap:round;stroke-linejoin:round;stroke-miterlimit:4;stroke-opacity:1;stroke-dasharray:none"
       d="M 73,41 C 73,23 73,23 73,23 L 55,23"
       id="path4809"
       inkscape:connector-curvature="0" /></g><g
     inkscape:label="Contents shrink"
     id="g5202"
     inkscape:groupmode="layer"
     style="display:none"><rect
       ry="8.780488"
       y="8"
       x="8"
       height="80"
       width="80"
       id="rect5204"
       style="fill:none;stroke:#000000;stroke-width:8;stroke-linecap:round;stroke-linejoin:round;stroke-miterlimit:4;stroke-opacity:1;stroke-dasharray:none;stroke-dashoffset:1.6" /><rect
       ry="2.5714285"
       y="48"
       x="24"
       height="24"
       width="24"
       id="rect5206"
       style="fill:#000000;fill-opacity:1;stroke:#000000;stroke-width:7.99999952;stroke-linecap:round;stroke-linejoin:round;stroke-miterlimit:4;stroke-opacity:1;stroke-dasharray:none;stroke-dashoffset:1.6" /><path
       inkscape:connector-curvature="0"
       id="path5208"
       d="M 73.000001,23 C 53,43 53,43 53,43"
       style="fill:none;stroke:#000000;stroke-width:6;stroke-linecap:round;stroke-linejoin:round;stroke-miterlimit:4;stroke-opacity:1;stroke-dasharray:none" /><path
       inkscape:connector-curvature="0"
       id="path5210"
       d="m 51,27 c 0,18 0,18 0,18 l 18,0"
       style="fill:none;stroke:#000000;stroke-width:6;stroke-linecap:round;stroke-linejoin:round;stroke-miterlimit:4;stroke-opacity:1;stroke-dasharray:none" /></g><g
     inkscape:label="Contents expand alt"
     id="g4186"
     inkscape:groupmode="layer"
     style="display:none"><rect
       ry="8.780488"
       y="8"
       x="8"
       height="80"
       width="80"
       id="rect4188"
       style="fill:none;stroke:#000000;stroke-width:8;stroke-linecap:round;stroke-linejoin:round;stroke-miterlimit:4;stroke-opacity:1;stroke-dasharray:none;stroke-dashoffset:1.6" /><rect
       ry="3"
       y="44"
       x="24"
       height="28"
       width="28"
       id="rect4190"
       style="fill:#000000;fill-opacity:1;stroke:#000000;stroke-width:8;stroke-linecap:round;stroke-linejoin:round;stroke-miterlimit:4;stroke-opacity:1;stroke-dasharray:none;stroke-dashoffset:1.6" /><path
       inkscape:connector-curvature="0"
       id="path4192"
       d="M 50.999999,44.999999 C 70.999999,25 70.999999,25 70.999999,25"
       style="fill:none;stroke:#000000;stroke-width:6;stroke-linecap:round;stroke-linejoin:round;stroke-miterlimit:4;stroke-opacity:1;stroke-dasharray:none" /><path
       inkscape:connector-curvature="0"
       id="path4194"
       d="M 73,41 C 73,23 73,23 73,23 L 55,23"
       style="fill:none;stroke:#000000;stroke-width:6;stroke-linecap:round;stroke-linejoin:round;stroke-miterlimit:4;stroke-opacity:1;stroke-dasharray:none" /></g><g
     style="display:none"
     inkscape:groupmode="layer"
     id="g5353"
     inkscape:label="Contents shrink alt"><rect
       style="fill:none;stroke:#000000;stroke-width:8;stroke-linecap:round;stroke-linejoin:round;stroke-miterlimit:4;stroke-opacity:1;stroke-dasharray:none;stroke-dashoffset:1.6"
       id="rect5355"
       width="80"
       height="80"
       x="8"
       y="8"
       ry="8.780488" /><rect
       style="fill:#000000;fill-opacity:1;stroke:#000000;stroke-width:8;stroke-linecap:round;stroke-linejoin:round;stroke-miterlimit:4;stroke-opacity:1;stroke-dasharray:none;stroke-dashoffset:1.6"
       id="rect5357"
       width="28"
       height="28"
       x="24"
       y="44"
       ry="3" /><path
       style="fill:none;stroke:#000000;stroke-width:6;stroke-linecap:round;stroke-linejoin:round;stroke-miterlimit:4;stroke-opacity:1;stroke-dasharray:none"
       d="m 73.000001,23 c -18,17.999999 -18,17.999999 -18,17.999999"
       id="path5359"
       inkscape:connector-curvature="0" /><path
       style="fill:none;stroke:#000000;stroke-width:6;stroke-linecap:round;stroke-linejoin:round;stroke-miterlimit:4;stroke-opacity:1;stroke-dasharray:none"
       d="m 55,23 c 0,18 0,18 0,18 l 18,0"
       id="path5361"
       inkscape:connector-curvature="0" /></g><g
     style="display:none"
     inkscape:groupmode="layer"
     id="g3123"
     inkscape:label="Detach"><rect
       style="fill:#000000;fill-opacity:1;stroke:#000000;stroke-width:7.99999857;stroke-linecap:round;stroke-linejoin:round;stroke-miterlimit:4;stroke-opacity:1;stroke-dasharray:none;stroke-dashoffset:1.6"
       id="rect3127"
       width="36"
       height="36"
       x="-84"
       y="-48"
       ry="3.8571432"
       transform="scale(-1,-1)" /><path
       style="fill:none;stroke:#000000;stroke-width:7.99999952;stroke-linecap:round;stroke-linejoin:round;stroke-miterlimit:4;stroke-opacity:1;stroke-dasharray:none"
       d="M 12,83.999996 C 40.000001,55.999997 40.000001,55.999997 40.000001,55.999997"
       id="path3129"
       inkscape:connector-curvature="0" /><path
       style="fill:none;stroke:#000000;stroke-width:8.00000095;stroke-linecap:round;stroke-linejoin:round;stroke-miterlimit:4;stroke-opacity:1;stroke-dasharray:none"
       d="m 44.000001,80 c 0,-28 0,-28 0,-28 L 16,52"
       id="path3131"
       inkscape:connector-curvature="0" /></g><g
     inkscape:label="Attach"
     id="g3113"
     inkscape:groupmode="layer"
     style="display:none"><rect
       ry="3.8571427"
       y="-48"
       x="-84"
       height="36"
       width="36"
       id="rect3117"
       style="fill:#000000;fill-opacity:1;stroke:#000000;stroke-width:8;stroke-linecap:round;stroke-linejoin:round;stroke-miterlimit:4;stroke-opacity:1;stroke-dasharray:none;stroke-dashoffset:1.6"
       transform="scale(-1,-1)" /><path
       inkscape:connector-curvature="0"
       id="path3119"
       d="M 48,47.999998 C 16,80 16,80 16,80"
       style="fill:none;stroke:#000000;stroke-width:8;stroke-linecap:round;stroke-linejoin:round;stroke-miterlimit:4;stroke-opacity:1;stroke-dasharray:none" /><path
       inkscape:connector-curvature="0"
       id="path3121"
       d="m 12,56 c 0,28 0,28 0,28 l 28,0"
       style="fill:none;stroke:#000000;stroke-width:7.99999952;stroke-linecap:round;stroke-linejoin:round;stroke-miterlimit:4;stroke-opacity:1;stroke-dasharray:none" /></g><g
     inkscape:groupmode="layer"
     id="g8714"
     inkscape:label="Screenshot"
     style="display:none"><rect
       style="fill:#000000;fill-opacity:1;fill-rule:nonzero;stroke:#000000;stroke-width:6;stroke-linecap:round;stroke-linejoin:round;stroke-miterlimit:4;stroke-opacity:1;stroke-dasharray:none;stroke-dashoffset:1.6;display:inline"
       id="rect9869"
       width="42"
       height="14"
       x="27"
       y="19"
       rx="4.5778842"
       ry="3.5097113" /><rect
       style="fill:#000000;fill-opacity:1;stroke:#000000;stroke-width:6.00000048;stroke-linecap:round;stroke-linejoin:round;stroke-miterlimit:4;stroke-opacity:1;stroke-dasharray:none;stroke-dashoffset:1.6;display:inline"
       id="rect9845"
       width="82"
       height="46"
       x="7"
       y="31"
       ry="5.0138731"
       rx="5.0138731" /><path
       sodipodi:type="arc"
       style="fill:none;stroke:#ffffff;stroke-width:3.72409511;stroke-miterlimit:4;stroke-opacity:1;stroke-dasharray:none;display:inline"
       id="path9681"
       sodipodi:cx="14.5"
       sodipodi:cy="13"
       sodipodi:rx="8.5"
       sodipodi:ry="8"
       d="M 23,13 A 8.5,8 0 1 1 6,13 8.5,8 0 1 1 23,13 z"
       transform="matrix(1.8235294,0,0,1.9375002,21.558824,28.812497)" /></g><g
     inkscape:groupmode="layer"
     id="layer3"
     inkscape:label="Screenshots folder"
     style="display:none"><rect
       style="fill:#ff0000;fill-opacity:1;fill-rule:nonzero;stroke:none"
       id="rect4421"
       width="88"
       height="8"
       x="4"
       y="34"
       rx="2.8039217"
       ry="0.66666657" /><path
       inkscape:connector-curvature="0"
       id="path5-0"
       d="M 4,73.937501 C 4,77.166667 7.4925,80 11.755,80 H 84.9875 C 89.25,80 92,77.166667 92,73.937501 V 40 H 4 v 33.937501 z" /><path
       inkscape:connector-curvature="0"
       id="path7-3"
       d="m 92,31 c 0,-3.875 -2.75,-7 -7.0125,-7 0,0 -42.5425,0 -45.925,0 C 37.77,24 36.12,21.525 33.975,19.25 32.0225,17.175 29.9325,16 28.3375,16 26.275,16 11.755,16 11.755,16 7.4925,16 4,18.225 4,22.075 L 4,36 92,36 z"
       sodipodi:nodetypes="scscscsccs" /></g><g
     style="display:none"
     inkscape:label="Screenshot alt"
     id="g11448"
     inkscape:groupmode="layer"><rect
       ry="4"
       rx="4"
       y="19"
       x="27"
       height="12"
       width="42"
       id="rect11450"
       style="fill:#000000;fill-opacity:1;fill-rule:nonzero;stroke:#000000;stroke-width:6;stroke-linecap:round;stroke-linejoin:round;stroke-miterlimit:4;stroke-opacity:1;stroke-dasharray:none;stroke-dashoffset:1.6;display:inline" /><path
       id="path11454"
       style="font-size:medium;font-style:normal;font-variant:normal;font-weight:normal;font-stretch:normal;text-indent:0;text-align:start;text-decoration:none;line-height:normal;letter-spacing:normal;word-spacing:normal;text-transform:none;direction:ltr;block-progression:tb;writing-mode:lr-tb;text-anchor:start;baseline-shift:baseline;color:#000000;fill:#000000;fill-opacity:1;stroke:none;stroke-width:3.72409511;marker:none;visibility:visible;display:inline;overflow:visible;enable-background:accumulate;font-family:Sans;-inkscape-font-specification:Sans"
       d="M 48,34.867185 C 37.712468,34.867185 29.080883,43.36797 29.080883,54 29.080883,64.63203 37.712468,73.132814 48,73.132814 58.287533,73.132814 66.919118,64.63203 66.919118,54 66.919118,43.36797 58.287533,34.867185 48,34.867185 z m 0,7.265626 c 6.833294,0 12.080883,5.378389 12.080883,11.867189 0,6.488798 -5.247589,11.867188 -12.080883,11.867188 -6.833295,0 -12.080882,-5.37839 -12.080882,-11.867188 0,-6.4888 5.247587,-11.867189 12.080882,-11.867189 z M 13,28 83,28 c 4.986,0 9,4.014 9,9 l 0,34 c 0,4.986 -4.014,9 -9,9 L 13,80 C 8.0140005,80 4.0000005,75.986 4.0000005,71 l 0,-34 c 0,-4.986 4.014,-9 8.9999995,-9 z"
       inkscape:connector-curvature="0" /></g><g
     inkscape:label="View only"
     id="g5470"
     inkscape:groupmode="layer"
     style="display:none"><path
       transform="translate(-2.0000003,-10.000001)"
       d="m 66,46 a 28,28 0 1 1 -56,0 28,28 0 1 1 56,0 z"
       sodipodi:ry="28"
       sodipodi:rx="28"
       sodipodi:cy="46"
       sodipodi:cx="38"
       id="path5472"
       style="fill:none;stroke:#000000;stroke-width:7.99999952;stroke-linecap:round;stroke-miterlimit:4;stroke-opacity:1;stroke-dasharray:none"
       sodipodi:type="arc" /><path
       inkscape:connector-curvature="0"
       id="path5474"
       d="M 88,87.999999 C 56,55.39701 56,56.000768 56,56.000768"
       style="fill:none;stroke:#000000;stroke-width:8;stroke-linecap:round;stroke-linejoin:round;stroke-miterlimit:4;stroke-opacity:1;stroke-dasharray:none" /></g><g
     style="display:none"
     inkscape:label="View only alt"
     id="g5588"
     inkscape:groupmode="layer"><path
       transform="matrix(0.92857143,0,0,0.92857143,-1.2857144,-8.714286)"
       d="m 66,46 a 28,28 0 1 1 -56,0 28,28 0 1 1 56,0 z"
       sodipodi:ry="28"
       sodipodi:rx="28"
       sodipodi:cy="46"
       sodipodi:cx="38"
       id="path5590"
       style="fill:none;stroke:#000000;stroke-width:8.6153841;stroke-linecap:round;stroke-miterlimit:4;stroke-opacity:1;stroke-dasharray:none"
       sodipodi:type="arc" /><path
       inkscape:connector-curvature="0"
       id="path5592"
       d="M 88,87.999999 C 54,53.359323 54,54.000816 54,54.000816"
       style="fill:none;stroke:#000000;stroke-width:8;stroke-linecap:round;stroke-linejoin:round;stroke-miterlimit:4;stroke-opacity:1;stroke-dasharray:none" /></g><g
     inkscape:groupmode="layer"
     id="layer5"
     inkscape:label="Expand"
     style="display:none"><path
       d="M 80,4 H 68 c -2.209,0 -4,1.791 -4,4 0,2.209 1.791,4 4,4 h 12 c 2.21,0 4,1.79 4,4 v 12 c 0,2.209 1.791,4 4,4 2.209,0 4,-1.791 4,-4 V 16 C 92,9.373 86.627,4 80,4 z"
       id="path3-7"
       inkscape:connector-curvature="0" /><path
       d="M 28,4 H 16 C 9.373,4 4,9.373 4,16 v 12 c 0,2.209 1.791,4 4,4 2.209,0 4,-1.791 4,-4 V 16 c 0,-2.21 1.79,-4 4,-4 h 12 c 2.209,0 4,-1.791 4,-4 0,-2.209 -1.791,-4 -4,-4 z"
       id="path5"
       inkscape:connector-curvature="0" /><path
       d="m 88,64 c -2.209,0 -4,1.791 -4,4 v 12 c 0,2.21 -1.79,4 -4,4 H 68 c -2.209,0 -4,1.791 -4,4 0,2.209 1.791,4 4,4 h 12 c 6.627,0 12,-5.373 12,-12 V 68 c 0,-2.209 -1.791,-4 -4,-4 z"
       id="path7"
       inkscape:connector-curvature="0" /><path
       d="M 28,84 H 16 c -2.21,0 -4,-1.79 -4,-4 V 68 c 0,-2.209 -1.791,-4 -4,-4 -2.209,0 -4,1.791 -4,4 v 12 c 0,6.627 5.373,12 12,12 h 12 c 2.209,0 4,-1.791 4,-4 0,-2.209 -1.791,-4 -4,-4 z"
       id="path9"
       inkscape:connector-curvature="0" /></g><g
     style="display:inline"
     inkscape:label="Scale"
     id="g4423"
     inkscape:groupmode="layer"><path
       inkscape:connector-curvature="0"
       id="path4425"
       d="M 80,4 H 68 c -2.209,0 -4,1.791 -4,4 0,2.209 1.791,4 4,4 h 12 c 2.21,0 4,1.79 4,4 v 12 c 0,2.209 1.791,4 4,4 2.209,0 4,-1.791 4,-4 V 16 C 92,9.373 86.627,4 80,4 z" /><path
       inkscape:connector-curvature="0"
       id="path4427"
       d="M 28,4 H 16 C 9.373,4 4,9.373 4,16 v 12 c 0,2.209 1.791,4 4,4 2.209,0 4,-1.791 4,-4 V 16 c 0,-2.21 1.79,-4 4,-4 h 12 c 2.209,0 4,-1.791 4,-4 0,-2.209 -1.791,-4 -4,-4 z" /><path
       inkscape:connector-curvature="0"
       id="path4429"
       d="m 88,64 c -2.209,0 -4,1.791 -4,4 v 12 c 0,2.21 -1.79,4 -4,4 H 68 c -2.209,0 -4,1.791 -4,4 0,2.209 1.791,4 4,4 h 12 c 6.627,0 12,-5.373 12,-12 V 68 c 0,-2.209 -1.791,-4 -4,-4 z" /><path
       inkscape:connector-curvature="0"
       id="path4431"
       d="M 28,84 H 16 c -2.21,0 -4,-1.79 -4,-4 V 68 c 0,-2.209 -1.791,-4 -4,-4 -2.209,0 -4,1.791 -4,4 v 12 c 0,6.627 5.373,12 12,12 h 12 c 2.209,0 4,-1.791 4,-4 0,-2.209 -1.791,-4 -4,-4 z" /><rect
       ry="10"
       y="32"
       x="24"
       height="32"
       width="48"
       id="rect4433"
       style="fill:#000000;fill-opacity:1;stroke:none" /></g></svg>