<?xml version="1.0" encoding="UTF-8" standalone="no"?>
<!-- Created with Inkscape (http://www.inkscape.org/) -->

<svg
   xmlns:dc="http://purl.org/dc/elements/1.1/"
   xmlns:cc="http://creativecommons.org/ns#"
   xmlns:rdf="http://www.w3.org/1999/02/22-rdf-syntax-ns#"
   xmlns:svg="http://www.w3.org/2000/svg"
   xmlns="http://www.w3.org/2000/svg"
   xmlns:sodipodi="http://sodipodi.sourceforge.net/DTD/sodipodi-0.dtd"
   xmlns:inkscape="http://www.inkscape.org/namespaces/inkscape"
   width="16px"
   height="16px"
   id="svg2985"
   version="1.1"
   inkscape:version="0.48.4 r9939"
   sodipodi:docname="bell.svg"
   inkscape:export-filename="/home/dan/bell.png"
   inkscape:export-xdpi="135"
   inkscape:export-ydpi="135">
  <defs
     id="defs2987" />
  <sodipodi:namedview
     id="base"
     pagecolor="#ffffff"
     bordercolor="#666666"
     borderopacity="1.0"
     inkscape:pageopacity="0.0"
     inkscape:pageshadow="2"
     inkscape:zoom="53.375"
     inkscape:cx="8"
     inkscape:cy="8"
     inkscape:current-layer="g4054"
     showgrid="true"
     inkscape:grid-bbox="true"
     inkscape:document-units="px"
     inkscape:window-width="1626"
     inkscape:window-height="1064"
     inkscape:window-x="143"
     inkscape:window-y="0"
     inkscape:window-maximized="0"
     showguides="true"
     inkscape:guide-bbox="true">
    <sodipodi:guide
       orientation="1,0"
       position="7.0051981,8.2665842"
       id="guide3988" />
    <sodipodi:guide
       orientation="1,0"
       position="9.0099011,8.8071783"
       id="guide3990" />
    <sodipodi:guide
       orientation="0,1"
       position="5.7888614,2.004703"
       id="guide3992" />
    <sodipodi:guide
       orientation="1,0"
       position="2.004703,2.5678218"
       id="guide3998" />
    <sodipodi:guide
       orientation="1,0"
       position="14.010396,6.3519803"
       id="guide4000" />
    <sodipodi:guide
       orientation="0,1"
       position="1.2163366,0.8108911"
       id="guide4002" />
    <sodipodi:guide
       orientation="0,1"
       position="3.8125,3.1875"
       id="guide4004" />
    <sodipodi:guide
       orientation="1,0"
       position="5.6086634,10.42896"
       id="guide4006" />
    <sodipodi:guide
       orientation="1,0"
       position="10.406436,9.2126238"
       id="guide4008" />
    <sodipodi:guide
       orientation="0,1"
       position="11.284901,11.194802"
       id="guide4010" />
    <inkscape:grid
       type="xygrid"
       id="grid3002"
       empspacing="10"
       visible="true"
       enabled="true"
       snapvisiblegridlinesonly="true"
       spacingx="0.5px"
       spacingy="0.5px" />
  </sodipodi:namedview>
  <metadata
     id="metadata2990">
    <rdf:RDF>
      <cc:Work
         rdf:about="">
        <dc:format>image/svg+xml</dc:format>
        <dc:type
           rdf:resource="http://purl.org/dc/dcmitype/StillImage" />
        <dc:title />
      </cc:Work>
    </rdf:RDF>
  </metadata>
  <g
     id="layer1"
     inkscape:label="2nd attempt red"
     inkscape:groupmode="layer"
     style="display:inline">
    <path
       style="fill:#ff0000;fill-opacity:1;fill-rule:nonzero;stroke:#960000;stroke-width:0.49999997;stroke-linecap:round;stroke-linejoin:round;stroke-miterlimit:4;stroke-opacity:1;stroke-dasharray:none;stroke-dashoffset:0"
       d="m 5.1124169,4.9616358 -0.1266697,4.121095 c -0.080528,2.6199362 -3.7357468,2.2553372 -3.7357468,3.7145002 0,0.775939 0,0.799347 0,0.799347 l 5.6280148,0 0,1.153422 c 0.9021156,0 1.3281238,0 2.2302394,0 l 0.035808,-1.153422 5.6059374,0 0,-0.799347 c -5e-6,-1.485497 -3.622092,-1.08994 -3.718901,-3.7145002 L 10.87909,4.9616358 C 10.873706,4.8156516 10.715466,1.25 8.0084204,1.25 5.3013751,1.25 5.1169047,4.8156308 5.1124169,4.9616358 z"
       inkscape:connector-curvature="0"
       sodipodi:nodetypes="ssccccccccssss"
       id="path4150" />
    <rect
       style="fill:#640000;fill-opacity:1;fill-rule:nonzero;stroke:none"
       id="rect4033"
       width="19.444645"
       height="0.85047698"
       x="1.5892892"
       y="-0.45289218"
       ry="0.42523849"
       transform="matrix(0.70538114,0.70882822,-0.75948013,0.6505305,0,0)" />
  </g>
  <g
     style="display:none"
     inkscape:groupmode="layer"
     inkscape:label="2nd attempt black"
     id="g4048">
    <path
       sodipodi:nodetypes="ssccccccccssss"
       inkscape:connector-curvature="0"
       d="m 5.1124169,4.9616358 -0.1266697,4.121095 c -0.080528,2.6199362 -3.7357468,2.2553372 -3.7357468,3.7145002 0,0.775939 0,0.799347 0,0.799347 l 5.6280148,0 0,1.153422 c 0.9021156,0 1.3281238,0 2.2302394,0 l 0.035808,-1.153422 5.6059374,0 0,-0.799347 c -5e-6,-1.485497 -3.622092,-1.08994 -3.718901,-3.7145002 L 10.87909,4.9616358 C 10.873706,4.8156516 10.715466,1.25 8.0084204,1.25 5.3013751,1.25 5.1169047,4.8156308 5.1124169,4.9616358 z"
       style="fill:#3c3c3c;fill-opacity:1;fill-rule:nonzero;stroke:#000000;stroke-width:0.49999997;stroke-linecap:round;stroke-linejoin:round;stroke-miterlimit:4;stroke-opacity:1;stroke-dasharray:none;stroke-dashoffset:0"
       id="path4050" />
    <rect
       transform="matrix(0.70538114,0.70882822,-0.75948013,0.6505305,0,0)"
       ry="0.42523849"
       y="-0.45289218"
       x="1.5892892"
       height="0.85047698"
       width="19.444645"
       id="rect4052"
       style="fill:#000000;fill-opacity:1;fill-rule:nonzero;stroke:none" />
  </g>
  <g
     style="display:none"
     inkscape:groupmode="layer"
     inkscape:label="Bell red"
     id="g3004">
    <path
       sodipodi:nodetypes="ssccccccccssss"
       inkscape:connector-curvature="0"
       d="M 5.5829856,4.9567763 5.4769584,8.4062854 C 5.4095534,10.599267 2.35,10.294088 2.35,11.515461 c 0,0.649489 0,0.669082 0,0.669082 l 4.7108569,0 0,0.965457 c 0.7551042,0 1.1116888,0 1.866793,0 l 0.029973,-0.965457 4.6923771,0 0,-0.669082 c -4e-6,-1.243419 -3.031825,-0.912321 -3.112859,-3.1091756 L 10.409904,4.9567763 c -0.0045,-0.1221938 -0.136959,-3.1067764 -2.4028561,-3.1067764 -2.2658973,0 -2.4203057,2.9845649 -2.4240623,3.1067764 z"
       style="fill:#ff0000;fill-opacity:1;fill-rule:nonzero;stroke:#960000;stroke-width:0.69999999;stroke-linecap:round;stroke-linejoin:round;stroke-miterlimit:4;stroke-opacity:1;stroke-dasharray:none;stroke-dashoffset:0"
       id="path3006" />
    <rect
       style="fill:#640000;fill-opacity:1;fill-rule:nonzero;stroke:none;display:inline"
       id="rect3008"
       width="16.917469"
       height="0.75406063"
       x="2.3044033"
       y="-2.8654296"
       ry="0.37703031"
       transform="matrix(0.53545009,0.84456687,-0.89892197,0.43810877,0,0)" />
  </g>
  <g
     id="g4054"
     inkscape:label="Bell black"
     inkscape:groupmode="layer"
     style="display:inline">
    <path
       id="path4056"
       style="fill:#505050;fill-opacity:1;fill-rule:nonzero;stroke:#000000;stroke-width:0.69999999;stroke-linecap:round;stroke-linejoin:round;stroke-miterlimit:4;stroke-opacity:1;stroke-dasharray:none;stroke-dashoffset:0"
       d="M 5.5829856,4.9567763 5.4769584,8.4062854 C 5.4095534,10.599267 2.35,10.294088 2.35,11.515461 c 0,0.649489 0,0.669082 0,0.669082 l 4.7108569,0 0,0.965457 c 0.7551042,0 1.1116888,0 1.866793,0 l 0.029973,-0.965457 4.6923771,0 0,-0.669082 c -4e-6,-1.243419 -3.031825,-0.912321 -3.112859,-3.1091756 L 10.409904,4.9567763 c -0.0045,-0.1221938 -0.136959,-3.1067764 -2.4028561,-3.1067764 -2.2658973,0 -2.4203057,2.9845649 -2.4240623,3.1067764 z"
       inkscape:connector-curvature="0"
       sodipodi:nodetypes="ssccccccccssss" />
    <rect
       transform="matrix(0.53545009,0.84456687,-0.89892197,0.43810877,0,0)"
       ry="0.37703031"
       y="-2.8654296"
       x="2.3044033"
       height="0.75406063"
       width="16.917469"
       id="rect4052-4"
       style="fill:#000000;fill-opacity:1;fill-rule:nonzero;stroke:none;display:inline" />
  </g>
  <g
     inkscape:groupmode="layer"
     id="layer2"
     inkscape:label="Initial attempt"
     style="display:none">
    <path
       id="path4024"
       style="fill:#0582ff;fill-opacity:1;fill-rule:nonzero;stroke:#000000;stroke-width:0.49999997;stroke-linecap:round;stroke-linejoin:round;stroke-miterlimit:4;stroke-opacity:0.74509804;stroke-dasharray:none;stroke-dashoffset:0;display:inline"
       d="M 5.4251225,4.7365718 5.3124987,9.162933 c -0.071599,2.814006 -3.3077969,1.86858 -3.3077969,3.435829 0,0.833416 -0.027413,1.412377 -0.027413,1.412377 l 5.0176516,0 0,1.238861 c 0.8020833,0 1.1808531,0 1.982936,0 l 0.03184,-1.238861 4.9679456,0 0.03274,-1.412377 c -5e-6,-1.595534 -3.236821,-0.616857 -3.322896,-3.435829 L 10.55235,4.7365718 C 10.547563,4.579774 10.40687,0.75 7.9999989,0.75 5.5931278,0.75 5.4291127,4.5797517 5.4251225,4.7365718 z"
       inkscape:connector-curvature="0"
       sodipodi:nodetypes="ssccccccccssss" />
  </g>
</svg>
