<?xml version="1.0" encoding="UTF-8" standalone="no"?>
<!-- Created with Inkscape (http://www.inkscape.org/) -->

<svg
   xmlns:dc="http://purl.org/dc/elements/1.1/"
   xmlns:cc="http://creativecommons.org/ns#"
   xmlns:rdf="http://www.w3.org/1999/02/22-rdf-syntax-ns#"
   xmlns:svg="http://www.w3.org/2000/svg"
   xmlns="http://www.w3.org/2000/svg"
   xmlns:sodipodi="http://sodipodi.sourceforge.net/DTD/sodipodi-0.dtd"
   xmlns:inkscape="http://www.inkscape.org/namespaces/inkscape"
   width="16px"
   height="16px"
   id="svg2988"
   version="1.1"
   inkscape:version="0.48.5 r10040"
   sodipodi:docname="chat.svg">
  <defs
     id="defs2990" />
  <sodipodi:namedview
     id="base"
     pagecolor="#ffffff"
     bordercolor="#666666"
     borderopacity="1.0"
     inkscape:pageopacity="0.0"
     inkscape:pageshadow="2"
     inkscape:zoom="59.875"
     inkscape:cx="8"
     inkscape:cy="8"
     inkscape:current-layer="layer1"
     showgrid="true"
     inkscape:grid-bbox="true"
     inkscape:document-units="px"
     showguides="true"
     inkscape:guide-bbox="true"
     inkscape:window-width="1850"
     inkscape:window-height="1168"
     inkscape:window-x="2"
     inkscape:window-y="0"
     inkscape:window-maximized="1">
    <inkscape:grid
       type="xygrid"
       id="grid2996"
       empspacing="10"
       visible="true"
       enabled="true"
       snapvisiblegridlinesonly="true"
       spacingx="0.5px"
       spacingy="0.5px" />
  </sodipodi:namedview>
  <metadata
     id="metadata2993">
    <rdf:RDF>
      <cc:Work
         rdf:about="">
        <dc:format>image/svg+xml</dc:format>
        <dc:type
           rdf:resource="http://purl.org/dc/dcmitype/StillImage" />
        <dc:title />
      </cc:Work>
    </rdf:RDF>
  </metadata>
  <g
     id="layer1"
     inkscape:label="Chat"
     inkscape:groupmode="layer"
     style="display:inline">
    <path
       style="fill:#333333;fill-opacity:1;fill-rule:nonzero;stroke:none"
       d="M 14,6.5882931 C 14,7.5320759 13.406848,8.5048171 12.249616,8.9431914 10.557783,9.5840794 10.304318,9.7333417 9.1110382,10.32531 8.5069536,10.624987 8.1881388,10.952161 7.4366066,11.460562 6.7599963,11.91828 3.362662,13.59858 4.1314838,12.414688 4.4923817,11.858949 4.9823872,10.699689 4.7200548,9.8692848 4.5901477,9.4580689 4.0288058,9.1596229 3.7573596,9.0050006 2.6715732,8.3865117 1.9999999,7.5320759 1.9999999,6.5882931 c 0,-1.887566 2.6862916,-3.4177407 6.0000006,-3.4177407 C 11.313708,3.1705524 14,4.7007271 14,6.5882931 z"
       id="path2998"
       inkscape:connector-curvature="0"
       sodipodi:nodetypes="sssssassss" />
  </g>
  <g
     style="display:none"
     inkscape:groupmode="layer"
     inkscape:label="Chat outlined"
     id="g2990">
    <path
       sodipodi:nodetypes="sssssassss"
       inkscape:connector-curvature="0"
       id="path2992"
       d="M 14,6.5882929 C 14,7.5320757 13.406848,8.5048169 12.249616,8.9431912 10.557783,9.5840792 10.304318,9.7333415 9.1110383,10.32531 8.5069536,10.624987 8.1881389,10.952161 7.4366066,11.460562 6.7599963,11.91828 3.362662,13.59858 4.1314838,12.414688 4.4923817,11.858949 4.9823872,10.699689 4.7200548,9.8692846 4.5901477,9.4580687 4.0288058,9.1596227 3.7573597,9.0050004 2.6715733,8.3865115 1.9999999,7.5320757 1.9999999,6.5882929 c 0,-1.887566 2.6862917,-3.4177407 6.0000007,-3.4177407 C 11.313708,3.1705522 14,4.7007269 14,6.5882929 z"
       style="fill:#4c4c4c;fill-opacity:1;fill-rule:nonzero;stroke:#222222;stroke-width:1;stroke-linecap:round;stroke-linejoin:round;stroke-miterlimit:4;stroke-opacity:1;stroke-dasharray:none" />
  </g>
</svg>
