<?xml version="1.0" encoding="UTF-8" standalone="no"?>
<!-- Created with Inkscape (http://www.inkscape.org/) -->

<svg
   xmlns:dc="http://purl.org/dc/elements/1.1/"
   xmlns:cc="http://creativecommons.org/ns#"
   xmlns:rdf="http://www.w3.org/1999/02/22-rdf-syntax-ns#"
   xmlns:svg="http://www.w3.org/2000/svg"
   xmlns="http://www.w3.org/2000/svg"
   xmlns:sodipodi="http://sodipodi.sourceforge.net/DTD/sodipodi-0.dtd"
   xmlns:inkscape="http://www.inkscape.org/namespaces/inkscape"
   width="12"
   height="12"
   id="svg2"
   version="1.1"
   inkscape:version="0.48.4 r9939"
   sodipodi:docname="connection.svg">
  <defs
     id="defs4" />
  <sodipodi:namedview
     id="base"
     pagecolor="#ffffff"
     bordercolor="#666666"
     borderopacity="1.0"
     inkscape:pageopacity="0.0"
     inkscape:pageshadow="2"
     inkscape:zoom="77.083333"
     inkscape:cx="6"
     inkscape:cy="6"
     inkscape:document-units="px"
     inkscape:current-layer="g3904"
     showgrid="true"
     showguides="true"
     inkscape:guide-bbox="true"
     inkscape:window-width="1706"
     inkscape:window-height="1135"
     inkscape:window-x="60"
     inkscape:window-y="0"
     inkscape:window-maximized="0">
    <inkscape:grid
       type="xygrid"
       id="grid2985"
       empspacing="10"
       visible="true"
       enabled="true"
       snapvisiblegridlinesonly="true"
       spacingx="0.25px"
       spacingy="0.25px" />
  </sodipodi:namedview>
  <metadata
     id="metadata7">
    <rdf:RDF>
      <cc:Work
         rdf:about="">
        <dc:format>image/svg+xml</dc:format>
        <dc:type
           rdf:resource="http://purl.org/dc/dcmitype/StillImage" />
        <dc:title></dc:title>
      </cc:Work>
    </rdf:RDF>
  </metadata>
  <g
     style="display:none"
     inkscape:label="Unknown connection"
     inkscape:groupmode="layer"
     id="g2992"
     transform="translate(0,-1040.3622)">
    <path
       sodipodi:type="arc"
       style="fill:#272727;fill-opacity:1;stroke:#272727;stroke-width:0.80000001;stroke-linecap:round;stroke-linejoin:round;stroke-miterlimit:4;stroke-opacity:1;stroke-dasharray:none;stroke-dashoffset:1.6;display:inline"
       id="path2994"
       sodipodi:cx="4.5"
       sodipodi:cy="4.5"
       sodipodi:rx="0.5"
       sodipodi:ry="0.5"
       d="m 5,4.5 a 0.5,0.5 0 1 1 -1,0 0.5,0.5 0 1 1 1,0 z"
       transform="matrix(1.6666666,0,0,1.6666666,-4.9999998,1042.3622)" />
    <path
       sodipodi:type="arc"
       style="fill:#272727;fill-opacity:1;stroke:#272727;stroke-width:0.80000001;stroke-linecap:round;stroke-linejoin:round;stroke-miterlimit:4;stroke-opacity:1;stroke-dasharray:none;stroke-dashoffset:1.6;display:inline"
       id="path3000"
       sodipodi:cx="4.5"
       sodipodi:cy="4.5"
       sodipodi:rx="0.5"
       sodipodi:ry="0.5"
       d="m 5,4.5 a 0.5,0.5 0 1 1 -1,0 0.5,0.5 0 1 1 1,0 z"
       transform="matrix(1.6666666,0,0,1.6666666,2.0000002,1035.3622)" />
    <path
       sodipodi:type="arc"
       style="fill:#272727;fill-opacity:1;stroke:#272727;stroke-width:0.80000001;stroke-linecap:round;stroke-linejoin:round;stroke-miterlimit:4;stroke-opacity:1;stroke-dasharray:none;stroke-dashoffset:1.6;display:inline"
       id="path3002"
       sodipodi:cx="4.5"
       sodipodi:cy="4.5"
       sodipodi:rx="0.5"
       sodipodi:ry="0.5"
       d="m 5,4.5 a 0.5,0.5 0 1 1 -1,0 0.5,0.5 0 1 1 1,0 z"
       transform="matrix(1.6666666,0,0,1.6666666,2.0000002,1042.3622)" />
  </g>
  <g
     transform="translate(0,-1040.3622)"
     id="g4897"
     inkscape:groupmode="layer"
     inkscape:label="Relay connection"
     style="display:none">
    <path
       transform="matrix(1.6666666,0,0,1.6666666,-4.9999998,1042.3622)"
       d="m 5,4.5 a 0.5,0.5 0 1 1 -1,0 0.5,0.5 0 1 1 1,0 z"
       sodipodi:ry="0.5"
       sodipodi:rx="0.5"
       sodipodi:cy="4.5"
       sodipodi:cx="4.5"
       id="path4903"
       style="fill:#272727;fill-opacity:1;stroke:#272727;stroke-width:0.80000001;stroke-linecap:round;stroke-linejoin:round;stroke-miterlimit:4;stroke-opacity:1;stroke-dasharray:none;stroke-dashoffset:1.6;display:inline"
       sodipodi:type="arc" />
    <path
       style="fill:none;stroke:#272727;stroke-width:1.20000005;stroke-linecap:round;stroke-linejoin:round;stroke-miterlimit:4;stroke-opacity:1;stroke-dasharray:none;display:inline"
       d="m 3,1049.8622 6,0"
       id="path5064-9"
       inkscape:connector-curvature="0" />
    <path
       style="fill:none;stroke:#272727;stroke-width:1.20000005;stroke-linecap:round;stroke-linejoin:round;stroke-miterlimit:4;stroke-opacity:1;stroke-dasharray:none"
       d="m 9.4999999,1043.3622 0,6"
       id="path5064"
       inkscape:connector-curvature="0" />
    <path
       transform="matrix(1.6666666,0,0,1.6666666,2.0000002,1035.3622)"
       d="m 5,4.5 a 0.5,0.5 0 1 1 -1,0 0.5,0.5 0 1 1 1,0 z"
       sodipodi:ry="0.5"
       sodipodi:rx="0.5"
       sodipodi:cy="4.5"
       sodipodi:cx="4.5"
       id="path4901"
       style="fill:#272727;fill-opacity:1;stroke:#272727;stroke-width:0.80000001;stroke-linecap:round;stroke-linejoin:round;stroke-miterlimit:4;stroke-opacity:1;stroke-dasharray:none;stroke-dashoffset:1.6;display:inline"
       sodipodi:type="arc" />
    <path
       transform="matrix(1.6666666,0,0,1.6666666,2.0000002,1042.3622)"
       d="m 5,4.5 a 0.5,0.5 0 1 1 -1,0 0.5,0.5 0 1 1 1,0 z"
       sodipodi:ry="0.5"
       sodipodi:rx="0.5"
       sodipodi:cy="4.5"
       sodipodi:cx="4.5"
       id="path4901-1"
       style="fill:#272727;fill-opacity:1;stroke:#272727;stroke-width:0.80000001;stroke-linecap:round;stroke-linejoin:round;stroke-miterlimit:4;stroke-opacity:1;stroke-dasharray:none;stroke-dashoffset:1.6;display:inline"
       sodipodi:type="arc" />
  </g>
  <g
     style="display:none"
     inkscape:label="Relay connection alt"
     inkscape:groupmode="layer"
     id="g4096"
     transform="translate(0,-1040.3622)">
    <path
       style="fill:none;stroke:#272727;stroke-width:1.20000005;stroke-linecap:butt;stroke-linejoin:miter;stroke-miterlimit:4;stroke-opacity:1;stroke-dasharray:none"
       d="m 6,2.5 -3.5,7"
       id="path4130"
       inkscape:connector-curvature="0"
       transform="translate(0,1040.3622)" />
    <path
       style="fill:none;stroke:#272727;stroke-width:1.20000005;stroke-linecap:round;stroke-linejoin:miter;stroke-miterlimit:4;stroke-opacity:1;stroke-dasharray:none"
       d="M 9.5,9.5 6,2.5"
       id="path4132"
       inkscape:connector-curvature="0"
       transform="translate(0,1040.3622)" />
    <path
       sodipodi:type="arc"
       style="fill:#272727;fill-opacity:1;stroke:#272727;stroke-width:0.80000001;stroke-linecap:round;stroke-linejoin:round;stroke-miterlimit:4;stroke-opacity:1;stroke-dasharray:none;stroke-dashoffset:1.6;display:inline"
       id="path4098"
       sodipodi:cx="4.5"
       sodipodi:cy="4.5"
       sodipodi:rx="0.5"
       sodipodi:ry="0.5"
       d="m 5,4.5 a 0.5,0.5 0 1 1 -1,0 0.5,0.5 0 1 1 1,0 z"
       transform="matrix(1.6666666,0,0,1.6666666,-4.9999998,1042.3622)" />
    <path
       sodipodi:type="arc"
       style="fill:#272727;fill-opacity:1;stroke:#272727;stroke-width:0.80000001;stroke-linecap:round;stroke-linejoin:round;stroke-miterlimit:4;stroke-opacity:1;stroke-dasharray:none;stroke-dashoffset:1.6;display:inline"
       id="path4104"
       sodipodi:cx="4.5"
       sodipodi:cy="4.5"
       sodipodi:rx="0.5"
       sodipodi:ry="0.5"
       d="m 5,4.5 a 0.5,0.5 0 1 1 -1,0 0.5,0.5 0 1 1 1,0 z"
       transform="matrix(1.6666666,0,0,1.6666666,-1.4999997,1035.3622)" />
    <path
       sodipodi:type="arc"
       style="fill:#272727;fill-opacity:1;stroke:#272727;stroke-width:0.80000001;stroke-linecap:round;stroke-linejoin:round;stroke-miterlimit:4;stroke-opacity:1;stroke-dasharray:none;stroke-dashoffset:1.6;display:inline"
       id="path4106"
       sodipodi:cx="4.5"
       sodipodi:cy="4.5"
       sodipodi:rx="0.5"
       sodipodi:ry="0.5"
       d="m 5,4.5 a 0.5,0.5 0 1 1 -1,0 0.5,0.5 0 1 1 1,0 z"
       transform="matrix(1.6666666,0,0,1.6666666,2.0000002,1042.3622)" />
  </g>
  <g
     style="display:inline"
     inkscape:label="Direct connection"
     inkscape:groupmode="layer"
     id="g3904"
     transform="translate(0,-1040.3622)">
    <path
       style="fill:none;stroke:#272727;stroke-width:1.20000005;stroke-linecap:round;stroke-linejoin:round;stroke-miterlimit:4;stroke-opacity:1;stroke-dasharray:none"
       d="M 2,10 10,2"
       id="path3906"
       inkscape:connector-curvature="0"
       transform="translate(0,1040.3622)" />
    <path
       sodipodi:type="arc"
       style="fill:#272727;fill-opacity:1;stroke:#272727;stroke-width:0.80000001;stroke-linecap:round;stroke-linejoin:round;stroke-miterlimit:4;stroke-opacity:1;stroke-dasharray:none;stroke-dashoffset:1.6;display:inline"
       id="path3908"
       sodipodi:cx="4.5"
       sodipodi:cy="4.5"
       sodipodi:rx="0.5"
       sodipodi:ry="0.5"
       d="m 5,4.5 a 0.5,0.5 0 1 1 -1,0 0.5,0.5 0 1 1 1,0 z"
       transform="matrix(1.6666666,0,0,1.6666666,2.0000002,1035.3622)" />
    <path
       sodipodi:type="arc"
       style="fill:#272727;fill-opacity:1;stroke:#272727;stroke-width:0.80000001;stroke-linecap:round;stroke-linejoin:round;stroke-miterlimit:4;stroke-opacity:1;stroke-dasharray:none;stroke-dashoffset:1.6;display:inline"
       id="path3910"
       sodipodi:cx="4.5"
       sodipodi:cy="4.5"
       sodipodi:rx="0.5"
       sodipodi:ry="0.5"
       d="m 5,4.5 a 0.5,0.5 0 1 1 -1,0 0.5,0.5 0 1 1 1,0 z"
       transform="matrix(1.6666666,0,0,1.6666666,-4.9999998,1042.3622)" />
  </g>
  <g
     transform="translate(0,-1040.3622)"
     id="g4523"
     inkscape:groupmode="layer"
     inkscape:label="Direct connection alt"
     style="display:none">
    <path
       transform="translate(0,1040.3622)"
       inkscape:connector-curvature="0"
       id="path4525"
       d="M 2,10 10,2"
       style="fill:none;stroke:#272727;stroke-width:1.20000005;stroke-linecap:round;stroke-linejoin:round;stroke-miterlimit:4;stroke-opacity:1;stroke-dasharray:none" />
    <path
       transform="matrix(1.6666666,0,0,1.6666666,2.0000002,1035.3622)"
       d="m 5,4.5 a 0.5,0.5 0 1 1 -1,0 0.5,0.5 0 1 1 1,0 z"
       sodipodi:ry="0.5"
       sodipodi:rx="0.5"
       sodipodi:cy="4.5"
       sodipodi:cx="4.5"
       id="path4527"
       style="fill:#272727;fill-opacity:1;stroke:#272727;stroke-width:0.80000001;stroke-linecap:round;stroke-linejoin:round;stroke-miterlimit:4;stroke-opacity:1;stroke-dasharray:none;stroke-dashoffset:1.6;display:inline"
       sodipodi:type="arc" />
    <path
       transform="matrix(1.6666666,0,0,1.6666666,-4.9999998,1042.3622)"
       d="m 5,4.5 a 0.5,0.5 0 1 1 -1,0 0.5,0.5 0 1 1 1,0 z"
       sodipodi:ry="0.5"
       sodipodi:rx="0.5"
       sodipodi:cy="4.5"
       sodipodi:cx="4.5"
       id="path4529"
       style="fill:#272727;fill-opacity:1;stroke:#272727;stroke-width:0.80000001;stroke-linecap:round;stroke-linejoin:round;stroke-miterlimit:4;stroke-opacity:1;stroke-dasharray:none;stroke-dashoffset:1.6;display:inline"
       sodipodi:type="arc" />
    <path
       transform="matrix(1.6666666,0,0,1.6666666,2.0000002,1042.3622)"
       d="m 5,4.5 a 0.5,0.5 0 1 1 -1,0 0.5,0.5 0 1 1 1,0 z"
       sodipodi:ry="0.5"
       sodipodi:rx="0.5"
       sodipodi:cy="4.5"
       sodipodi:cx="4.5"
       id="path4531"
       style="fill:#272727;fill-opacity:1;stroke:#272727;stroke-width:0.80000001;stroke-linecap:round;stroke-linejoin:round;stroke-miterlimit:4;stroke-opacity:1;stroke-dasharray:none;stroke-dashoffset:1.6;display:inline"
       sodipodi:type="arc" />
  </g>
</svg>
