<?xml version="1.0" encoding="UTF-8" standalone="no"?>
<svg
   xmlns:dc="http://purl.org/dc/elements/1.1/"
   xmlns:cc="http://creativecommons.org/ns#"
   xmlns:rdf="http://www.w3.org/1999/02/22-rdf-syntax-ns#"
   xmlns:svg="http://www.w3.org/2000/svg"
   xmlns="http://www.w3.org/2000/svg"
   xmlns:sodipodi="http://sodipodi.sourceforge.net/DTD/sodipodi-0.dtd"
   xmlns:inkscape="http://www.inkscape.org/namespaces/inkscape"
   enable-background="new 0 0 50 50"
   height="12"
   id="Layer_1"
   version="1.1"
   viewBox="0 0 12 12"
   width="12"
   xml:space="preserve"
   inkscape:version="0.91 r13725"
   sodipodi:docname="handset12.svg"><metadata
     id="metadata11"><rdf:RDF><cc:Work
         rdf:about=""><dc:format>image/svg+xml</dc:format><dc:type
           rdf:resource="http://purl.org/dc/dcmitype/StillImage" /><dc:title></dc:title></cc:Work></rdf:RDF></metadata><defs
     id="defs9" /><sodipodi:namedview
     pagecolor="#ffffff"
     bordercolor="#666666"
     borderopacity="1"
     objecttolerance="10"
     gridtolerance="10"
     guidetolerance="10"
     inkscape:pageopacity="0"
     inkscape:pageshadow="2"
     inkscape:window-width="1782"
     inkscape:window-height="1130"
     id="namedview7"
     showgrid="true"
     inkscape:zoom="75.75"
     inkscape:cx="6"
     inkscape:cy="6"
     inkscape:window-x="0"
     inkscape:window-y="0"
     inkscape:window-maximized="0"
     inkscape:current-layer="layer1"><inkscape:grid
       type="xygrid"
       id="grid3756"
       empspacing="10"
       visible="true"
       enabled="true"
       snapvisiblegridlinesonly="true"
       spacingx="0.5px"
       spacingy="0.5px" /></sodipodi:namedview><rect
     height="50"
     width="50"
     id="rect3"
     x="0"
     y="-38"
     style="fill:none" /><g
     inkscape:groupmode="layer"
     id="layer1"
     inkscape:label="Handset"
     transform="translate(0,-4)"
     style="display:inline"><path
       d="m 3.864251,11.086959 c 0,0 0.4829143,0.843539 0.5989555,1.064372 0.1164577,0.220209 0.1458326,0.448331 0.06125,0.586875 -0.1283334,0.20979 -1.3002028,1.971452 -1.4039523,2.119785 -0.1039582,0.148333 -0.4008313,0.21979 -0.6916634,0.01584 C 2.137801,14.670912 0.98780642,13.733832 1.0000979,13.336749 1.0130152,12.939042 1.0492645,11.285505 4.1682078,8.1673878 7.286318,5.0496878 8.9402674,5.0128127 9.337766,5.0001043 c 0.3974985,-0.012708 1.334995,1.1372889 1.538326,1.4281211 0.203124,0.2912498 0.126666,0.5885403 -0.01625,0.6918738 C 10.697135,7.2375944 8.9411019,8.395925 8.7396441,8.5234243 8.6023532,8.6107162 8.3729798,8.5786328 8.1525644,8.4621744 7.9315227,8.3463417 7.0881931,7.8634266 7.0881931,7.8634266 c 0,0 -0.5806222,0.3404157 -1.7316584,1.4916629 C 4.2052901,10.506545 3.8642502,11.086959 3.8642502,11.086959 Z"
       stroke-miterlimit="10"
       id="path5"
       inkscape:connector-curvature="0"
       style="fill:#333333;fill-opacity:1;stroke:none;stroke-width:0.47999999;stroke-miterlimit:10;stroke-dasharray:none;stroke-opacity:1" /></g><g
     transform="translate(0,-4)"
     inkscape:label="Handset red"
     id="g22533"
     inkscape:groupmode="layer"
     style="display:none"><path
       style="fill:#ff0000;fill-opacity:1;stroke:none;stroke-width:0.47999999;stroke-miterlimit:10;stroke-dasharray:none;stroke-opacity:1"
       inkscape:connector-curvature="0"
       id="path22535"
       stroke-miterlimit="10"
       d="m 3.8642506,11.086959 c 0,0 0.4829147,0.84354 0.5989553,1.064372 0.1164581,0.220209 0.1458331,0.448332 0.06125,0.586874 C 4.3961245,12.947998 3.2242535,14.709658 3.120504,14.857991 3.0165457,15.006324 2.7196726,15.07778 2.4288407,14.873831 2.1378007,14.670912 0.98780637,13.733832 1.0000979,13.336749 1.0130152,12.939042 1.0492645,11.285504 4.1682075,8.1673878 7.2863173,5.0496884 8.9402659,5.0128127 9.337765,5.0001044 9.7352636,4.9873987 10.672759,6.1373925 10.876091,6.4282232 11.079215,6.719473 11.002758,7.0167636 10.859842,7.1200969 10.697134,7.2375914 8.9411028,8.3959227 8.7396456,8.5234226 8.6023558,8.6107153 8.3729806,8.5786299 8.1525658,8.4621725 7.9315236,8.3463395 7.0881947,7.8634244 7.0881947,7.8634244 c 0,0 -0.580622,0.3404156 -1.7316582,1.491663 C 4.2052898,10.506545 3.8642498,11.086959 3.8642498,11.086959 Z" /></g></svg>