<?xml version="1.0" encoding="UTF-8" standalone="no"?>
<svg
   xmlns:dc="http://purl.org/dc/elements/1.1/"
   xmlns:cc="http://creativecommons.org/ns#"
   xmlns:rdf="http://www.w3.org/1999/02/22-rdf-syntax-ns#"
   xmlns:svg="http://www.w3.org/2000/svg"
   xmlns="http://www.w3.org/2000/svg"
   xmlns:sodipodi="http://sodipodi.sourceforge.net/DTD/sodipodi-0.dtd"
   xmlns:inkscape="http://www.inkscape.org/namespaces/inkscape"
   enable-background="new 0 0 50 50"
   height="16"
   id="Layer_1"
   version="1.1"
   viewBox="0 0 16 16"
   width="16"
   xml:space="preserve"
   inkscape:version="0.91 r13725"
   sodipodi:docname="handset.svg"><metadata
     id="metadata11"><rdf:RDF><cc:Work
         rdf:about=""><dc:format>image/svg+xml</dc:format><dc:type
           rdf:resource="http://purl.org/dc/dcmitype/StillImage" /><dc:title /></cc:Work></rdf:RDF></metadata><defs
     id="defs9" /><sodipodi:namedview
     pagecolor="#ffffff"
     bordercolor="#666666"
     borderopacity="1"
     objecttolerance="10"
     gridtolerance="10"
     guidetolerance="10"
     inkscape:pageopacity="0"
     inkscape:pageshadow="2"
     inkscape:window-width="1782"
     inkscape:window-height="1130"
     id="namedview7"
     showgrid="true"
     inkscape:zoom="56.8125"
     inkscape:cx="8"
     inkscape:cy="8"
     inkscape:window-x="0"
     inkscape:window-y="0"
     inkscape:window-maximized="0"
     inkscape:current-layer="layer1"><inkscape:grid
       type="xygrid"
       id="grid3756"
       empspacing="10"
       visible="true"
       enabled="true"
       snapvisiblegridlinesonly="true"
       spacingx="0.5px"
       spacingy="0.5px" /></sodipodi:namedview><rect
     height="50"
     width="50"
     id="rect3"
     x="0"
     y="-34"
     style="fill:none" /><g
     inkscape:groupmode="layer"
     id="layer1"
     inkscape:label="Handset"><path
       d="m 5.5380945,9.2494896 c 0,0 0.5560471,0.9713734 0.6896616,1.2256724 0.1340941,0.25358 0.1679176,0.516274 0.070526,0.675812 C 6.1505139,11.392558 4.801176,13.42119 4.6817146,13.592002 4.5620134,13.762815 4.2201811,13.845101 3.8853054,13.610235 3.5501899,13.376568 2.2260395,12.297477 2.2401926,11.840219 2.2550654,11.382242 2.2968051,9.4781187 5.8880827,5.8874671 9.4784011,2.2972953 11.382826,2.254832 11.840522,2.2401977 c 0.457696,-0.014634 1.537167,1.3096393 1.771291,1.6445456 0.233885,0.3353872 0.145849,0.6777306 -0.01871,0.7967238 -0.187349,0.1353059 -2.209317,1.4691756 -2.441283,1.6159968 -0.158083,0.1005205 -0.422193,0.063575 -0.675988,-0.070532 -0.254516,-0.1333866 -1.2255599,-0.689485 -1.2255599,-0.689485 0,0 -0.668552,0.3920039 -1.9939017,1.7177168 C 5.9307807,8.5811163 5.5380935,9.2494896 5.5380935,9.2494896 Z"
       stroke-miterlimit="10"
       id="path5"
       inkscape:connector-curvature="0"
       style="fill:#333333;fill-opacity:1;stroke:#222222;stroke-width:0.48;stroke-miterlimit:10;stroke-opacity:1;stroke-dasharray:none" /></g></svg>