<?xml version="1.0" encoding="UTF-8" standalone="no"?>
<svg
   xmlns:dc="http://purl.org/dc/elements/1.1/"
   xmlns:cc="http://creativecommons.org/ns#"
   xmlns:rdf="http://www.w3.org/1999/02/22-rdf-syntax-ns#"
   xmlns:svg="http://www.w3.org/2000/svg"
   xmlns="http://www.w3.org/2000/svg"
   xmlns:sodipodi="http://sodipodi.sourceforge.net/DTD/sodipodi-0.dtd"
   xmlns:inkscape="http://www.inkscape.org/namespaces/inkscape"
   viewBox="0 0 12 12"
   id="svg2"
   version="1.1"
   inkscape:version="0.91 r13725"
   sodipodi:docname="microphone12.svg"
   width="12"
   height="12"
   enable-background="new">
  <metadata
     id="metadata12">
    <rdf:RDF>
      <cc:Work
         rdf:about="">
        <dc:format>image/svg+xml</dc:format>
        <dc:type
           rdf:resource="http://purl.org/dc/dcmitype/StillImage" />
        <dc:title></dc:title>
      </cc:Work>
    </rdf:RDF>
  </metadata>
  <sodipodi:namedview
     pagecolor="#ffffff"
     bordercolor="#666666"
     borderopacity="1"
     objecttolerance="10"
     gridtolerance="10"
     guidetolerance="10"
     inkscape:pageopacity="0"
     inkscape:pageshadow="2"
     inkscape:window-width="1850"
     inkscape:window-height="1168"
     id="namedview10"
     showgrid="true"
     inkscape:zoom="55.80251"
     inkscape:cx="6"
     inkscape:cy="6"
     inkscape:window-x="2"
     inkscape:window-y="0"
     inkscape:window-maximized="1"
     inkscape:current-layer="layer1"
     showguides="true"
     inkscape:guide-bbox="true">
    <inkscape:grid
       type="xygrid"
       id="grid4140"
       spacingx="0.5"
       spacingy="0.5"
       empspacing="5" />
    <sodipodi:guide
       position="2,6"
       orientation="0,1"
       id="guide4404" />
    <sodipodi:guide
       position="7,3"
       orientation="0,1"
       id="guide4406" />
    <sodipodi:guide
       position="4,2"
       orientation="0,1"
       id="guide4408" />
    <sodipodi:guide
       position="6.5,1"
       orientation="0,1"
       id="guide4410" />
    <sodipodi:guide
       position="4,10"
       orientation="0,1"
       id="guide4412" />
  </sodipodi:namedview>
  <defs
     id="defs3051">
    <style
       type="text/css"
       id="current-color-scheme">
      .ColorScheme-Text {
        color:#4d4d4d;
      }
      .ColorScheme-NegativeText {
        color:#da4453;
      }
      </style>
  </defs>
  <g
     inkscape:groupmode="layer"
     id="layer1"
     inkscape:label="Microphone"
     style="display:inline;opacity:1">
    <path
       inkscape:connector-curvature="0"
       style="color:#4d4d4d;opacity:1;fill:#444444;fill-opacity:1;stroke:none"
       d="M 6,0 C 4.892,0 4,0.892 4,2 L 4,6 C 4,7.108 4.892,8 6,8 7.108,8 8,7.108 8,6 L 8,2 C 8,0.892 7.108,0 6,0 Z M 2,5 2,6 C 2,7.847 3.286,9.405469 5,9.8554688 L 5,11 4,11 4,12 8,12 8,11 7,11 7,9.8554688 C 8.714,9.404469 10,7.845 10,6 L 10,5 9,5 9,6 C 9,7.645 7.645,9 6,9 4.355,9 3,7.645 3,6 L 3,5 2,5 Z"
       class="ColorScheme-Text"
       id="path6" />
    <path
       style="display:inline;fill:none;fill-rule:evenodd;stroke:#444444;stroke-width:1.20000005;stroke-linecap:round;stroke-linejoin:miter;stroke-miterlimit:4;stroke-dasharray:none;stroke-opacity:1"
       d="M 1.6060602,1.6060601 C 10.39394,10.39394 10.39394,10.39394 10.39394,10.39394"
       id="path4377-5"
       inkscape:connector-curvature="0" />
  </g>
  <g
     style="display:none;opacity:1"
     inkscape:label="Microphone muted"
     id="g8251"
     inkscape:groupmode="layer">
    <path
       id="path8253"
       class="ColorScheme-Text"
       d="M 6,0 C 4.892,0 4,0.892 4,2 L 4,6 C 4,7.108 4.892,8 6,8 7.108,8 8,7.108 8,6 L 8,2 C 8,0.892 7.108,0 6,0 Z M 2,5 2,6 C 2,7.847 3.286,9.405469 5,9.8554688 L 5,11 4,11 4,12 8,12 8,11 7,11 7,9.8554688 C 8.714,9.404469 10,7.845 10,6 L 10,5 9,5 9,6 C 9,7.645 7.645,9 6,9 4.355,9 3,7.645 3,6 L 3,5 2,5 Z"
       style="color:#4d4d4d;fill:#cc0000;fill-opacity:1;stroke:none"
       inkscape:connector-curvature="0" />
    <path
       inkscape:connector-curvature="0"
       id="path8255"
       d="M 1.6060603,1.6060602 C 10.39394,10.39394 10.39394,10.39394 10.39394,10.39394"
       style="display:inline;fill:none;fill-rule:evenodd;stroke:#cc0000;stroke-width:1.20000017;stroke-linecap:round;stroke-linejoin:miter;stroke-miterlimit:4;stroke-dasharray:none;stroke-opacity:1" />
  </g>
  <g
     inkscape:groupmode="layer"
     id="layer3"
     inkscape:label="Microphone alt (drawn using bezier curves)"
     style="display:none">
    <g
       id="g4418">
      <path
         sodipodi:nodetypes="zcczccz"
         inkscape:connector-curvature="0"
         id="path4414"
         d="M 6,0 C 4,0 4,2 4,2 L 4,6 C 4,6 4,8 6,8 8,8 8,6 8,6 L 8,2 C 8,2 8,0 6,0 Z"
         style="opacity:1;fill:#4d4d4d;fill-opacity:1;fill-rule:evenodd;stroke:none;stroke-width:1px;stroke-linecap:butt;stroke-linejoin:miter;stroke-opacity:1" />
      <path
         sodipodi:nodetypes="ccscccccccccccczcc"
         inkscape:connector-curvature="0"
         id="path4416"
         d="M 3,5 2,5 2,6 c 0,3 3,4 3,4 l 0,1 -1,0 0,1 4,0 0,-1 -1,0 0,-1 c 0,0 3,-1 3,-4 L 10,5 9,5 9,6 C 9,7.5 7.5,9 6,9 4.5,9 3,7.5 3,6 Z"
         style="opacity:1;fill:#4d4d4d;fill-opacity:1;fill-rule:evenodd;stroke:none;stroke-width:1px;stroke-linecap:butt;stroke-linejoin:miter;stroke-opacity:1" />
    </g>
  </g>
  <g
     inkscape:groupmode="layer"
     id="g4327"
     inkscape:label="Microphone muted alt"
     style="display:none;opacity:1">
    <path
       inkscape:connector-curvature="0"
       style="color:#4d4d4d;fill:#960000;fill-opacity:1;stroke:none"
       d="M 6,0 C 4.892,0 4,0.892 4,2 L 4,6 C 4,7.108 4.892,8 6,8 7.108,8 8,7.108 8,6 L 8,2 C 8,0.892 7.108,0 6,0 Z M 2,5 2,6 C 2,7.847 3.286,9.405469 5,9.8554688 L 5,11 4,11 4,12 8,12 8,11 7,11 7,9.8554688 C 8.714,9.404469 10,7.845 10,6 L 10,5 9,5 9,6 C 9,7.645 7.645,9 6,9 4.355,9 3,7.645 3,6 L 3,5 2,5 Z"
       class="ColorScheme-Text"
       id="path4329" />
    <path
       style="display:inline;fill:none;fill-rule:evenodd;stroke:#dd0000;stroke-width:1.20000017;stroke-linecap:round;stroke-linejoin:miter;stroke-miterlimit:4;stroke-dasharray:none;stroke-opacity:1"
       d="M 1.6060603,1.6060602 C 10.39394,10.39394 10.39394,10.39394 10.39394,10.39394"
       id="path4377-7"
       inkscape:connector-curvature="0" />
  </g>
</svg>
