/* XPM */
static char * blink_xpm[] = {
"32 32 516 2",
"  	c None",
". 	c #00669B",
"+ 	c #0075AD",
"@ 	c #006DA3",
"# 	c #33B1E5",
"$ 	c #008FD0",
"% 	c #0084C1",
"& 	c #007CB6",
"* 	c #0073AA",
"= 	c #06A7E0",
"- 	c #28AAE1",
"; 	c #3FAEE2",
"> 	c #4CB1E4",
", 	c #48B3E6",
"' 	c #3CB8EA",
") 	c #009FDD",
"! 	c #0099DA",
"~ 	c #0094D8",
"{ 	c #008CCB",
"] 	c #0082BE",
"^ 	c #0079B2",
"/ 	c #00A1DE",
"( 	c #08A6DF",
"_ 	c #39ACE1",
": 	c #53B2E4",
"< 	c #61B7E6",
"[ 	c #69B9E7",
"} 	c #4BB9E9",
"| 	c #60B5E5",
"1 	c #4AB0E3",
"2 	c #25A9E1",
"3 	c #00A4DF",
"4 	c #009EDD",
"5 	c #0093D6",
"6 	c #0087C5",
"7 	c #007EB9",
"8 	c #0098DA",
"9 	c #02A5DF",
"0 	c #37ACE2",
"a 	c #57B3E4",
"b 	c #68B9E7",
"c 	c #6FBFEA",
"d 	c #75C3EC",
"e 	c #79C5EE",
"f 	c #76C4ED",
"g 	c #73C1EB",
"h 	c #6DBDE9",
"i 	c #63B6E6",
"j 	c #4CB0E3",
"k 	c #1FA9E1",
"l 	c #00A3DF",
"m 	c #009CDB",
"n 	c #0096DA",
"o 	c #008DCD",
"p 	c #0083BF",
"q 	c #008ACA",
"r 	c #0095D8",
"s 	c #009BDB",
"t 	c #00A2DF",
"u 	c #1EA9E0",
"v 	c #50B1E4",
"w 	c #67B8E7",
"x 	c #72C0EA",
"y 	c #7BC6EE",
"z 	c #81CBF1",
"A 	c #85CEF2",
"B 	c #83CEF2",
"C 	c #7FCAF0",
"D 	c #78C4ED",
"E 	c #60B6E6",
"F 	c #42AEE3",
"G 	c #07A6DF",
"H 	c #0091D4",
"I 	c #008DCE",
"J 	c #0097DA",
"K 	c #009DDC",
"L 	c #00A5DF",
"M 	c #3AADE2",
"N 	c #5EB5E5",
"O 	c #6EBEEA",
"P 	c #7AC6EE",
"Q 	c #84CEF2",
"R 	c #91D7F6",
"S 	c #9FDDF8",
"T 	c #9ADBF7",
"U 	c #8BD3F5",
"V 	c #80CBF0",
"W 	c #69BAE8",
"X 	c #52B1E4",
"Y 	c #1DA9E0",
"Z 	c #00A2DE",
"` 	c #0093D7",
" .	c #0083C0",
"..	c #008FD1",
"+.	c #07A6E0",
"@.	c #45AFE3",
"#.	c #63B8E7",
"$.	c #70C0EB",
"%.	c #7DC9F0",
"&.	c #8DD5F6",
"*.	c #B2E2F8",
"=.	c #CAEBFB",
"-.	c #C3E8F9",
";.	c #A1DDF8",
">.	c #86D1F4",
",.	c #5AB4E5",
"'.	c #2DABE2",
").	c #006FA5",
"!.	c #0084C0",
"~.	c #0090D2",
"{.	c #2DAFE3",
"].	c #34AEE4",
"^.	c #7AB6DC",
"/.	c #9DC6E3",
"(.	c #C4E2F7",
"_.	c #D6F3FF",
":.	c #C8E9FB",
"<.	c #EBF7FD",
"[.	c #DBF1FB",
"}.	c #B0E1F9",
"|.	c #89D3F5",
"1.	c #7DC8EF",
"2.	c #5DB5E6",
"3.	c #34ACE1",
"4.	c #0096D9",
"5.	c #006599",
"6.	c #006EA4",
"7.	c #6EC7ED",
"8.	c #8EACC3",
"9.	c #454C4F",
"0.	c #555453",
"a.	c #616060",
"b.	c #59595A",
"c.	c #5E6062",
"d.	c #7E8992",
"e.	c #9BCAE9",
"f.	c #C4E8F9",
"g.	c #A4DDF8",
"h.	c #7BC7EE",
"i.	c #6DBDEA",
"j.	c #5BB4E5",
"k.	c #2EABE1",
"l.	c #006296",
"m.	c #006CA3",
"n.	c #0078B0",
"o.	c #2EA8E3",
"p.	c #9CA6AF",
"q.	c #464647",
"r.	c #8F9092",
"s.	c #DBDCDD",
"t.	c #D9DADC",
"u.	c #D8D9DA",
"v.	c #D5D6D7",
"w.	c #BABCBE",
"x.	c #8A8C8E",
"y.	c #60BAE4",
"z.	c #8ED5F6",
"A.	c #76C4EC",
"B.	c #6ABAE8",
"C.	c #1EA9E1",
"D.	c #009ADB",
"E.	c #00578A",
"F.	c #006195",
"G.	c #006AA0",
"H.	c #0080BA",
"I.	c #008BCC",
"J.	c #4696B9",
"K.	c #4A4849",
"L.	c #A1A2A3",
"M.	c #E5E6E7",
"N.	c #E4E5E6",
"O.	c #E4E5E7",
"P.	c #E2E3E4",
"Q.	c #DDDEDF",
"R.	c #D6D7D8",
"S.	c #CECED0",
"T.	c #5DB5D6",
"U.	c #87CDF1",
"V.	c #78C5ED",
"W.	c #61B6E6",
"X.	c #43AFE3",
"Y.	c #09A6DF",
"Z.	c #00A0DD",
"`.	c #0096D6",
" +	c #005487",
".+	c #005E92",
"++	c #00689D",
"@+	c #0072A9",
"#+	c #008AC8",
"$+	c #4F5152",
"%+	c #8A8B8D",
"&+	c #EBECED",
"*+	c #E9EAEB",
"=+	c #EAEBEC",
"-+	c #EBECEC",
";+	c #E7E8E9",
">+	c #DBDADA",
",+	c #66BADC",
"'+	c #77C3ED",
")+	c #64B8E6",
"!+	c #4EB0E4",
"~+	c #22A9E0",
"{+	c #00A1E3",
"]+	c #2D4F5F",
"^+	c #005284",
"/+	c #005C8F",
"(+	c #006FA4",
"_+	c #006CA6",
":+	c #2A6987",
"<+	c #5B5B5D",
"[+	c #EBEBEC",
"}+	c #EDEEEF",
"|+	c #EFF0F0",
"1+	c #EFF0F1",
"2+	c #EEEEEF",
"3+	c #E9E9EA",
"4+	c #B1D6E3",
"5+	c #52B4E6",
"6+	c #67B9E7",
"7+	c #5FB6E5",
"8+	c #4CB0E4",
"9+	c #2BABE1",
"0+	c #077FB1",
"a+	c #464140",
"b+	c #0E4579",
"c+	c #004E81",
"d+	c #00588A",
"e+	c #006BA0",
"f+	c #0064A1",
"g+	c #4C5051",
"h+	c #ABADAE",
"i+	c #F1F2F2",
"j+	c #F3F4F4",
"k+	c #F4F4F5",
"l+	c #F2F2F3",
"m+	c #F4F1F0",
"n+	c #B0D5E9",
"o+	c #3DAEE3",
"p+	c #54B3E4",
"q+	c #3DADE2",
"r+	c #1CA9E0",
"s+	c #009DDF",
"t+	c #1F2D34",
"u+	c #606163",
"v+	c #555758",
"w+	c #154175",
"x+	c #034A7E",
"y+	c #005486",
"z+	c #145888",
"A+	c #4C4A49",
"B+	c #EDEDEE",
"C+	c #F1F1F2",
"D+	c #F4F5F5",
"E+	c #F7F8F8",
"F+	c #FAF9F9",
"G+	c #E5EDF5",
"H+	c #79C4E9",
"I+	c #1AA9E0",
"J+	c #20AAE1",
"K+	c #1DAAE1",
"L+	c #12A8E0",
"M+	c #03A5DF",
"N+	c #009DE1",
"O+	c #205269",
"P+	c #424343",
"Q+	c #66686A",
"R+	c #565759",
"S+	c #193E72",
"T+	c #0D4579",
"U+	c #04598E",
"V+	c #205779",
"W+	c #6D6664",
"X+	c #F7F3F1",
"Y+	c #F3F1F0",
"Z+	c #EDF0F3",
"`+	c #F0F3F9",
" @	c #FDFCFC",
".@	c #96D0EE",
"+@	c #26A8E0",
"@@	c #009DDD",
"#@	c #00A0DE",
"$@	c #009BE0",
"%@	c #206382",
"&@	c #343131",
"*@	c #747578",
"=@	c #666869",
"-@	c #57585A",
";@	c #1D3B70",
">@	c #05497D",
",@	c #005385",
"'@	c #01598E",
")@	c #0086C1",
"!@	c #1895CA",
"~@	c #46A1D2",
"{@	c #4FA5D4",
"]@	c #4CA4D3",
"^@	c #309CCF",
"/@	c #008BCF",
"(@	c #0092D7",
"_@	c #0099DB",
":@	c #0098DD",
"<@	c #2C6078",
"[@	c #393636",
"}@	c #76777A",
"|@	c #213A6E",
"1@	c #1A3D72",
"2@	c #114377",
"3@	c #014C7F",
"4@	c #005B8E",
"5@	c #00699F",
"6@	c #0071A8",
"7@	c #0078B1",
"8@	c #0088C7",
"9@	c #0091D3",
"0@	c #0094D7",
"a@	c #0A89C3",
"b@	c #41545D",
"c@	c #414142",
"d@	c #818386",
"e@	c #858689",
"f@	c #757679",
"g@	c #656668",
"h@	c #555658",
"i@	c #24386C",
"j@	c #1E3A6F",
"k@	c #183F74",
"l@	c #004E80",
"m@	c #005587",
"n@	c #006397",
"o@	c #00699E",
"p@	c #006FA6",
"q@	c #007AB3",
"r@	c #0086C4",
"s@	c #0088C5",
"t@	c #0086C3",
"u@	c #346C85",
"v@	c #534D4B",
"w@	c #5D5E60",
"x@	c #9A9B9E",
"y@	c #929396",
"z@	c #828487",
"A@	c #727476",
"B@	c #636466",
"C@	c #545557",
"D@	c #204072",
"E@	c #21366C",
"F@	c #174074",
"G@	c #0B467A",
"H@	c #00679C",
"I@	c #006BA2",
"J@	c #0070A7",
"K@	c #0074AC",
"L@	c #007AB4",
"M@	c #007CB5",
"N@	c #007EB8",
"O@	c #0C5E95",
"P@	c #075B95",
"Q@	c #1D7198",
"R@	c #5B5F62",
"S@	c #6A6A6B",
"T@	c #8B8D90",
"U@	c #7D7F82",
"V@	c #6E6F72",
"W@	c #5F6063",
"X@	c #525355",
"Y@	c #1C3D71",
"Z@	c #20376C",
"`@	c #1C3B70",
" #	c #004C7F",
".#	c #005386",
"+#	c #00598B",
"@#	c #005E91",
"##	c #006396",
"$#	c #00679D",
"%#	c #1E698E",
"&#	c #0072A8",
"*#	c #7FBADA",
"=#	c #427C99",
"-#	c #2E2929",
";#	c #5F6163",
">#	c #6A6B6E",
",#	c #5A5B5D",
"'#	c #055082",
")#	c #1F3B70",
"!#	c #104479",
"~#	c #084F7B",
"{#	c #155376",
"]#	c #27546E",
"^#	c #3C525F",
"/#	c #53504F",
"(#	c #7A797A",
"_#	c #A9AFB3",
":#	c #1C77A5",
"<#	c #00689C",
"[#	c #00679B",
"}#	c #006095",
"|#	c #006FA7",
"1#	c #134660",
"2#	c #1C1C1D",
"3#	c #005F91",
"4#	c #054F81",
"5#	c #1E3B71",
"6#	c #21376C",
"7#	c #1E3A70",
"8#	c #0E4577",
"9#	c #3A3837",
"0#	c #3F3D3C",
"a#	c #6A6969",
"b#	c #8C8D8E",
"c#	c #ADAEB0",
"d#	c #D3D4D6",
"e#	c #D4D5D6",
"f#	c #CBCCCE",
"g#	c #BCC4C8",
"h#	c #005D92",
"i#	c #005D90",
"j#	c #005D8F",
"k#	c #005A8D",
"l#	c #005688",
"m#	c #0A446F",
"n#	c #1B1918",
"o#	c #2F3031",
"p#	c #035183",
"q#	c #1A3F73",
"r#	c #0B5D86",
"s#	c #373332",
"t#	c #464748",
"u#	c #BBBCBE",
"v#	c #C1C3C5",
"w#	c #C2C3C5",
"x#	c #C0C2C3",
"y#	c #BCBEC0",
"z#	c #B5B0AE",
"A#	c #005E8F",
"B#	c #005183",
"C#	c #004F81",
"D#	c #0B406D",
"E#	c #141311",
"F#	c #2B2B2C",
"G#	c #00679A",
"H#	c #114679",
"I#	c #21386D",
"J#	c #19477D",
"K#	c #0B78A8",
"L#	c #313031",
"M#	c #38393A",
"N#	c #909193",
"O#	c #B7B9BB",
"P#	c #B4B5B8",
"Q#	c #A2A4A6",
"R#	c #3A606F",
"S#	c #035D95",
"T#	c #07487C",
"U#	c #08477B",
"V#	c #0C467A",
"W#	c #0F4478",
"X#	c #144277",
"Y#	c #152D4B",
"Z#	c #0D0E0D",
"`#	c #0078AF",
" $	c #006DA0",
".$	c #065081",
"+$	c #174175",
"@$	c #1D427A",
"#$	c #278FC3",
"$$	c #506876",
"%$	c #232323",
"&$	c #3F3E3F",
"*$	c #4C4948",
"=$	c #6D777E",
"-$	c #237EB5",
";$	c #193D71",
">$	c #193F74",
",$	c #1A3E73",
"'$	c #1B3E72",
")$	c #1D3C71",
"!$	c #0E0F11",
"~$	c #0076AB",
"{$	c #064F81",
"]$	c #113E72",
"^$	c #3C6192",
"/$	c #99AAC5",
"($	c #426B84",
"_$	c #226EA5",
":$	c #425785",
"<$	c #1E376C",
"[$	c #1F3A6F",
"}$	c #1F396E",
"|$	c #21386E",
"1$	c #223870",
"2$	c #101521",
"3$	c #0080B9",
"4$	c #0074A9",
"5$	c #00689B",
"6$	c #005E90",
"7$	c #005687",
"8$	c #044B7D",
"9$	c #0E4377",
"0$	c #1B3E73",
"a$	c #1E3B70",
"b$	c #193E73",
"c$	c #101826",
"d$	c #0182BA",
"e$	c #007BB2",
"f$	c #0071A5",
"g$	c #006294",
"h$	c #005A8C",
"i$	c #005889",
"j$	c #033B5C",
"k$	c #016692",
"l$	c #016693",
"m$	c #006794",
"n$	c #006491",
"o$	c #00608B",
"p$	c #015981",
"q$	c #024768",
"                                                          .     ",
"                                                        + @     ",
"                                      #             $ % & *     ",
"                            = - ; > , '         ) ! ~ { ] ^     ",
"                        / ( _ : < [ }     | 1 2 3 4 ! 5 6 7     ",
"                    8 ) 9 0 a b c d e f g h i j k l m n o p     ",
"                q r s t u v w x y z A B C D h E F G ) 8 H       ",
"              ] I J K L M N O P Q R S T U V d W X Y Z s `       ",
"            ^  ...8 ) +.@.#.$.%.&.*.=.-.;.>.P h ,.'.l m ~       ",
"          ).^ !.~.8 4 {.].^./.(._.:.<.[.}.|.1.c 2.3.3 m 4.      ",
"        5.6.^  ...n 7.8.9.0.a.b.c.d.e.f.g.>.h.i.j.k.3 m         ",
"        l.m.n.] I o.p.q.r.s.t.u.v.w.x.y.z.z A.B.: C.Z D.        ",
"      E.F.G.+ H.I.J.K.L.M.N.O.P.Q.R.S.T.U.V.O W.X.Y.Z.`.        ",
"       +.+++@+& #+$+%+&+*+=+-+*+;+P.>+,+'+h )+!+~+l {+]+        ",
"      ^+/+5.(+_+:+<+=+[+}+|+1+2+&+3+4+5+6+7+8+9+3 4 0+a+        ",
"    b+c+d+F.e+f+g+h+=+2+i+j+k+l+m+n+o+p+8+q+r+3 ) s+t+u+v+      ",
"    w+x+y+/+5.z+A+3+B+C+D+E+F+G+H+I+J+K+L+M+t 4 N+O+P+Q+R+      ",
"    S+T+c+d+U+V+W+X+Y+Z+`+ @.@+@@@/ t Z #@) s $@%@&@*@=@-@      ",
"    ;@w+>@,@'@)@!@~@{@]@^@/@(@J 8 _@D.D._@J :@<@[@}@}@Q+R+      ",
"    |@1@2@3@ +4@l.5@6@7@7 !.8@I 9@5 0@0@` a@b@c@d@e@f@g@h@      ",
"    i@j@k@T+l@m@/+n@o@p@+ q@7 ] % r@s@t@u@v@w@x@y@z@A@B@C@      ",
"    D@E@;@F@G@l@m@4@F.H@I@J@K@7@L@M@N@O@P@Q@R@S@T@U@V@W@X@      ",
"      Y@Z@`@F@T+ #.#+#@###$#e+%#@ 6@@+@+&#6@*#=#-#;#>#,#        ",
"      '#)#Z@`@k@!#x+~#{#]#^#/#(#_#:#<#H@[#5.}#|#1#2#R+C@        ",
"      3#4#5#6#7#8#9#0#a#b#c#d#e#f#g#h#i#j#k#+#l#m#n#o#          ",
"        ##p#q#E@1@r#s#t#u#v#w#x#y#z#A#.#,@B#C#3@D#E#F#          ",
"          G#l#H#I#J#K#L#M#N#O#P#Q#R#S#T#U#V#W#X#Y#Z#            ",
"          `# $j#.$+$@$#$$$%$&$*$=$-$;$k@>$,$'$)$!$              ",
"              ~$G#k#{$]$^$/$($_$:$<$[$[$}$|$1$2$                ",
"                3$4$5$6$7$8$9$+$0$5#a$a$)$b$c$                  ",
"                    d$e$f$5$g$A#h$i$+#+#j$                      ",
"                        k$l$m$n$o$p$q$                          "};
